<?xml version="1.0" standalone="no"?>
<!DOCTYPE svg PUBLIC "-//W3C//DTD SVG 20010904//EN"
 "http://www.w3.org/TR/2001/REC-SVG-20010904/DTD/svg10.dtd">
<svg version="1.0" xmlns="http://www.w3.org/2000/svg"
 width="700.000000pt" height="700.000000pt" viewBox="0 0 700.000000 700.000000"
 preserveAspectRatio="xMidYMid meet">
<metadata>
Created by potrace 1.11, written by Peter Selinger 2001-2013
</metadata>
<g transform="translate(0.000000,700.000000) scale(0.100000,-0.100000)"
fill="#000000" stroke="none">
<path d="M3397 6924 c-1 -1 -49 -5 -107 -8 -1190 -69 -2261 -762 -2823 -1827
-141 -267 -280 -659 -322 -909 -3 -19 -8 -42 -10 -50 -2 -8 -7 -35 -10 -60 -4
-24 -8 -47 -10 -50 -1 -3 -6 -39 -10 -80 -4 -41 -9 -84 -11 -95 -14 -71 -26
-546 -15 -570 10 -21 9 -55 -2 -55 -9 0 -9 -2 -1 -8 6 -4 14 -43 18 -87 3 -44
9 -96 12 -115 4 -19 7 -52 8 -72 0 -21 4 -38 7 -38 7 0 23 -93 22 -127 0 -13
3 -23 7 -23 4 0 7 -6 8 -12 0 -11 9 -54 16 -83 2 -5 6 -18 9 -27 29 -78 30
-94 4 -106 -21 -11 -21 -11 6 -7 19 3 27 0 24 -8 -2 -6 2 -17 9 -24 7 -7 15
-32 19 -55 4 -23 11 -49 15 -58 14 -28 45 -104 45 -111 0 -4 3 -10 7 -14 4 -4
4 -13 1 -21 -3 -8 0 -14 7 -14 6 0 8 -5 4 -12 -5 -8 -13 -4 -26 11 -21 27 -24
51 -5 51 9 0 9 2 -1 9 -8 4 -13 11 -13 15 1 7 -8 8 -31 0 -10 -3 -18 -10 -18
-15 0 -6 4 -8 9 -5 5 4 11 3 14 -1 2 -5 2 -2 0 5 -1 8 2 12 8 10 6 -2 10 -7
10 -11 -1 -4 -1 -14 -1 -23 0 -10 -6 -14 -14 -11 -10 4 -13 1 -9 -9 4 -11 9
-12 18 -4 11 9 12 3 10 -27 -5 -44 8 -76 19 -48 3 9 1 26 -5 37 -16 30 -3 34
16 5 15 -24 15 -28 0 -54 -15 -25 -15 -26 0 -7 27 36 58 14 79 -56 1 -3 9 -19
19 -37 15 -29 15 -31 0 -29 -9 2 -19 9 -21 16 -3 7 0 10 7 6 7 -5 9 -1 4 9 -4
11 -8 13 -12 6 -4 -6 -15 -17 -26 -24 -17 -13 -17 -14 6 -13 17 1 24 -4 24
-19 0 -12 6 -19 14 -17 8 2 11 -3 8 -10 -3 -8 2 -14 13 -14 10 0 16 6 13 13
-5 12 -17 17 -35 14 -11 -1 -10 17 0 23 11 7 27 -5 41 -31 12 -24 15 -64 4
-62 -22 4 -32 -3 -27 -16 9 -21 25 -19 17 3 -3 9 -3 14 2 10 4 -4 13 -4 19 1
8 7 20 -6 37 -39 24 -44 25 -51 12 -70 -8 -11 -19 -20 -24 -20 -6 0 -3 10 5
22 21 30 20 33 -9 52 -19 12 -30 14 -43 7 -11 -7 -12 -11 -4 -11 7 0 10 -5 6
-12 -4 -7 -3 -8 4 -4 7 4 12 2 12 -5 0 -7 3 -9 6 -6 4 4 1 13 -6 22 -15 18 -1
19 23 1 19 -15 24 -31 5 -20 -8 5 -9 2 -5 -9 3 -9 2 -19 -4 -22 -17 -11 2 -26
24 -19 19 6 20 5 8 -10 -11 -13 -11 -16 0 -17 8 -1 17 -1 22 0 4 0 7 -6 7 -15
0 -8 -4 -13 -8 -10 -5 3 -9 -1 -9 -9 0 -22 15 -18 22 5 7 22 -2 43 -15 35 -5
-3 -8 6 -7 19 1 14 6 24 12 23 5 -1 9 -5 8 -9 -2 -5 2 -8 8 -8 5 0 7 -4 4 -10
-3 -5 3 -17 15 -27 11 -10 20 -23 20 -29 0 -6 9 -21 20 -34 11 -13 20 -27 20
-31 0 -4 6 -14 13 -21 28 -29 62 -84 59 -96 -2 -7 1 -11 5 -10 4 2 8 1 8 -2 1
-3 12 -17 25 -31 34 -35 65 -74 60 -74 -5 -1 -3 -3 60 -75 22 -25 40 -49 40
-55 -1 -5 -7 -1 -15 9 -8 11 -15 14 -15 8 0 -7 -4 -12 -10 -12 -5 0 -7 6 -4
13 6 18 -17 47 -41 51 -28 4 -37 -15 -18 -36 18 -20 33 -23 33 -7 0 5 -4 8 -9
5 -5 -3 -14 0 -20 8 -9 11 -6 14 13 14 30 0 42 -34 18 -47 -13 -7 -9 -9 17 -8
20 1 36 -3 38 -11 3 -8 -2 -10 -14 -6 -14 5 -15 4 -4 -4 10 -7 12 -15 5 -24
-5 -8 -2 -6 7 4 9 9 20 14 23 10 4 -3 4 1 0 11 -11 31 10 16 58 -39 34 -38 46
-59 41 -71 -5 -14 -4 -16 8 -8 11 8 22 3 46 -22 17 -18 28 -33 25 -33 -4 0 0
-4 8 -10 8 -5 11 -12 7 -16 -9 -9 -38 16 -32 26 8 12 -11 21 -28 14 -8 -3 -14
-16 -13 -28 1 -16 6 -22 15 -18 10 4 12 1 6 -9 -6 -11 -5 -12 6 -1 7 6 17 12
22 12 4 0 5 -6 0 -12 -14 -23 -12 -37 5 -31 10 4 13 2 8 -5 -4 -7 -3 -12 2
-12 5 0 10 11 10 25 0 35 9 42 29 22 9 -9 13 -20 9 -24 -4 -4 -11 -1 -16 7 -6
9 -10 10 -10 3 0 -19 20 -26 35 -13 12 10 15 9 15 -9 0 -11 5 -21 11 -21 5 0
7 6 3 13 -5 8 -2 8 9 -2 19 -15 23 -41 5 -41 -6 0 -8 -3 -5 -6 4 -4 13 -2 20
5 11 8 18 7 31 -7 9 -10 13 -22 9 -27 -5 -4 0 -5 10 -2 11 4 16 3 12 -3 -3 -6
0 -10 8 -10 8 0 22 -9 31 -19 14 -15 15 -24 7 -39 -6 -11 -15 -22 -21 -24 -6
-2 0 -9 12 -17 22 -13 22 -13 8 4 -13 16 -13 18 0 13 8 -3 15 -15 14 -27 0
-15 2 -19 10 -11 7 7 7 16 -2 30 -6 11 -12 24 -12 30 0 15 26 12 41 -6 10 -13
10 -17 -2 -25 -9 -5 -10 -9 -2 -9 6 0 15 5 18 11 7 10 45 -16 45 -32 0 -8 -42
-5 -57 4 -6 4 -13 1 -16 -7 -4 -10 0 -12 14 -9 17 5 24 -5 20 -29 -2 -12 14
-9 27 4 16 16 16 -4 0 -21 -10 -11 -10 -13 0 -7 6 4 12 3 12 -1 0 -5 8 -13 18
-19 16 -10 18 -8 19 23 0 20 -3 30 -7 24 -5 -9 -10 -8 -20 4 -10 12 -10 19 -2
27 9 9 12 8 12 -5 0 -9 3 -16 8 -16 29 5 64 -23 56 -45 -3 -9 -11 -16 -16 -16
-6 0 -8 6 -5 13 3 8 1 20 -3 27 -5 8 -7 -4 -6 -30 2 -28 8 -45 17 -48 11 -3
11 -1 -1 7 -9 7 -10 11 -3 11 6 0 14 9 18 20 5 16 10 18 31 8 13 -6 24 -15 24
-20 0 -4 3 -7 8 -6 6 3 61 -32 115 -74 12 -9 18 -20 14 -24 -4 -5 -13 -2 -18
6 -9 12 -10 12 -5 -3 4 -12 2 -17 -6 -14 -7 2 -12 11 -10 19 3 17 -25 44 -35
34 -10 -10 -11 -46 -1 -40 5 4 7 12 4 20 -3 8 -2 14 3 14 16 0 20 -13 10 -31
-5 -11 -6 -19 -2 -18 4 1 16 -1 26 -6 13 -5 15 -10 7 -15 -7 -4 -1 -7 14 -7
14 0 26 3 26 8 0 5 -3 8 -7 8 -23 -4 -25 3 -6 16 22 15 58 11 47 -6 -3 -5 0
-9 5 -9 20 0 26 -2 53 -21 14 -10 30 -19 36 -19 5 0 15 -7 22 -15 7 -8 16 -13
20 -10 5 3 10 2 12 -2 1 -5 26 -19 55 -32 53 -25 71 -47 53 -65 -5 -5 -10 -17
-10 -25 0 -9 7 -3 15 13 8 15 12 32 9 37 -3 5 2 6 10 3 9 -3 13 -10 10 -15 -3
-5 5 -8 18 -8 20 2 92 -29 78 -32 -30 -8 -50 -5 -46 8 3 8 1 11 -4 8 -6 -3
-10 0 -10 7 0 7 -7 2 -16 -10 -8 -12 -20 -22 -26 -22 -7 0 -6 6 2 15 7 9 8 15
2 15 -14 0 -22 -24 -12 -39 6 -10 9 -10 15 -1 5 8 11 6 22 -7 13 -17 13 -16 4
4 -7 13 -7 24 -2 28 10 5 27 -32 23 -49 -2 -5 11 3 28 18 18 14 36 24 41 21
12 -8 -13 -34 -26 -28 -5 3 5 -9 23 -27 25 -23 39 -29 55 -24 20 6 21 5 7 -12
-14 -17 -14 -18 2 -6 9 8 23 10 29 6 7 -4 9 -3 6 3 -7 12 40 36 54 28 5 -4 9
-12 9 -19 0 -8 7 -19 15 -26 17 -14 21 -35 5 -25 -5 3 -10 1 -10 -4 0 -13 10
-14 30 -1 8 5 11 10 5 11 -5 0 -1 5 10 10 l20 9 -20 -2 c-26 -3 -45 9 -45 30
0 13 2 13 16 -4 8 -10 13 -13 9 -7 -6 12 14 9 40 -6 10 -6 16 -7 36 -10 5 0 7
-6 4 -11 -3 -6 -1 -10 4 -10 6 0 11 5 11 11 0 6 5 7 13 2 6 -4 21 -9 32 -10
23 -4 41 -20 32 -29 -3 -4 -14 1 -23 11 -13 13 -19 14 -25 4 -4 -7 -5 -17 -3
-21 6 -10 -10 -11 -19 -1 -4 3 -1 13 6 21 10 13 9 14 -3 6 -17 -10 -60 -13
-60 -4 0 3 6 12 12 19 11 11 9 11 -9 0 -15 -9 -19 -17 -13 -25 6 -6 7 -15 3
-20 -4 -5 -1 -3 7 3 21 19 34 16 19 -4 -11 -15 -11 -16 1 -5 20 17 30 15 24
-5 -4 -13 -3 -14 3 -5 8 10 12 10 22 -2 7 -8 19 -12 27 -9 8 3 14 1 14 -4 0
-6 19 -9 43 -9 23 1 50 -2 59 -6 18 -9 58 9 58 26 0 5 -8 2 -19 -8 -10 -9 -25
-14 -34 -10 -22 8 -11 25 11 18 13 -4 14 -3 4 4 -8 5 -30 8 -49 6 -32 -2 -34
-1 -20 13 9 10 20 12 29 7 7 -5 18 -9 23 -10 30 -6 64 -14 93 -23 17 -5 32 -8
32 -6 0 2 18 -2 39 -10 22 -7 42 -10 46 -7 4 4 5 0 3 -8 -3 -8 -12 -13 -19
-11 -8 2 -20 4 -26 4 -7 0 -13 5 -13 10 0 6 -3 7 -6 4 -4 -4 -1 -13 6 -22 8
-10 9 -15 1 -15 -6 0 -11 -5 -11 -11 0 -5 4 -8 9 -5 5 4 12 0 15 -6 3 -7 4 -4
3 6 -1 10 4 21 11 23 7 3 10 -1 7 -10 -3 -7 2 -20 12 -27 15 -12 16 -12 6 0
-7 8 -13 19 -13 24 1 6 9 1 19 -10 17 -21 18 -21 29 -4 12 19 55 24 49 5 -2
-5 -11 -9 -20 -7 -8 1 -18 -1 -21 -6 -10 -17 29 -9 50 10 13 11 28 16 40 12
15 -5 16 -4 5 4 -8 6 -27 9 -43 7 -15 -2 -30 1 -34 6 -3 5 -14 -1 -24 -13 -18
-21 -29 -14 -12 8 4 5 3 6 -3 1 -16 -13 -28 -7 -15 8 14 16 46 20 54 6 3 -4
17 -7 32 -5 14 1 43 -4 65 -11 29 -11 39 -11 39 -2 0 9 3 9 8 -1 5 -7 16 -10
25 -6 11 4 17 1 17 -9 0 -12 -7 -14 -27 -11 -19 3 -24 1 -14 -5 9 -5 10 -11 3
-15 -6 -4 -16 3 -22 14 -8 15 -17 19 -28 14 -9 -3 -25 -6 -34 -6 -19 1 -25
-23 -8 -33 6 -3 7 1 4 10 -4 11 -2 14 9 9 8 -3 18 -1 22 5 3 6 12 11 18 11 7
-1 1 -10 -12 -20 -13 -11 -19 -20 -14 -20 5 0 14 5 21 12 9 9 17 7 33 -8 13
-10 19 -13 14 -5 -5 9 -3 12 6 9 8 -3 13 -10 12 -15 -1 -5 4 -10 12 -10 8 0
12 4 9 9 -3 4 -1 8 5 8 5 0 12 -5 14 -10 3 -6 4 -5 3 2 -2 7 -11 13 -21 13
-10 0 -20 5 -22 12 -6 16 49 6 59 -10 5 -7 7 -2 6 13 -3 22 1 25 29 25 17 1
30 -2 27 -6 -2 -4 14 -6 35 -4 35 2 39 0 37 -19 -1 -12 -5 -27 -9 -33 -8 -12
20 -26 34 -17 5 3 9 11 8 17 0 9 -2 9 -6 0 -8 -22 -20 -14 -20 12 0 15 5 25
13 25 8 0 14 6 14 13 0 8 4 7 11 -3 8 -11 12 -12 16 -2 2 6 10 9 16 5 6 -4 69
-8 139 -9 83 -1 134 -6 143 -14 15 -13 12 -30 -6 -30 -6 0 -8 4 -4 9 9 15 -13
23 -34 12 -13 -7 -21 -8 -24 -1 -3 6 -4 5 -3 -2 2 -7 -1 -22 -7 -33 -8 -17 -7
-17 12 3 22 23 30 22 65 -7 11 -9 16 -10 12 -3 -4 7 -3 19 4 27 7 9 8 15 0 20
-22 14 -7 20 48 20 31 0 65 3 75 8 9 4 17 4 17 -1 0 -4 9 -8 20 -8 11 0 20 3
20 6 0 4 15 7 33 7 32 1 92 7 162 19 29 4 36 3 30 -8 -3 -7 0 -5 9 6 9 12 23
17 36 13 11 -3 20 -2 20 2 0 4 7 8 16 8 15 0 14 -2 -1 -14 -10 -7 -16 -15 -14
-18 3 -3 15 4 27 15 12 11 34 22 49 25 16 2 46 8 67 14 22 5 44 8 48 5 4 -3 8
-1 8 4 0 5 10 8 23 8 12 -1 27 1 33 6 6 4 21 10 35 12 13 3 26 5 29 6 3 1 10
3 15 5 6 1 12 3 15 4 23 11 40 6 47 -12 4 -12 6 -28 5 -34 -2 -7 2 -13 8 -13
6 0 9 4 5 9 -3 5 0 13 6 17 6 3 15 0 20 -7 5 -8 9 -9 9 -3 0 15 -35 46 -43 37
-4 -3 -7 1 -7 11 0 13 5 16 21 11 16 -6 20 -4 14 6 -5 8 -5 11 0 7 4 -4 15 -3
25 2 19 10 64 -15 55 -30 -3 -5 -1 -11 4 -14 5 -4 12 -2 15 3 4 5 2 12 -4 16
-5 3 -10 11 -10 17 0 7 5 7 14 -1 10 -9 15 -8 19 3 4 11 1 13 -10 9 -12 -5
-14 -3 -8 8 8 12 6 12 -8 0 -10 -8 -20 -11 -24 -7 -11 10 6 19 37 19 16 0 27
4 24 9 -5 8 17 12 44 9 6 -1 12 2 12 7 0 8 13 15 50 26 3 1 11 5 18 10 12 7
12 4 2 -14 -6 -12 -17 -19 -24 -17 -7 3 -19 1 -27 -4 -12 -8 -12 -9 1 -7 24 3
61 -13 54 -24 -4 -6 2 -6 15 1 23 13 29 23 8 15 -9 -3 -12 4 -11 23 2 43 3 45
15 37 6 -3 15 -1 19 6 4 7 21 13 38 14 17 0 28 4 26 7 -5 8 27 22 34 15 2 -3
5 -17 5 -32 -1 -18 2 -22 8 -13 7 12 9 12 9 0 0 -8 3 -12 6 -9 3 4 -1 19 -10
36 -8 16 -13 32 -10 35 9 9 32 -16 27 -29 -6 -17 17 -28 30 -15 7 7 7 18 -1
36 -11 23 -9 27 11 34 12 5 26 9 31 9 5 0 12 4 15 9 8 13 71 43 88 43 7 0 13
-5 13 -11 0 -6 -7 -8 -16 -5 -11 4 -18 -1 -21 -14 -4 -15 -9 -18 -18 -10 -9 8
-12 4 -9 -16 1 -14 6 -29 10 -32 4 -4 4 1 1 10 -4 11 0 19 13 23 11 3 17 12
14 20 -3 8 1 12 13 12 13 -2 17 4 16 20 -2 14 5 27 18 34 17 9 20 8 14 -3 -4
-7 2 -3 12 10 10 13 22 20 25 16 12 -11 -30 -47 -47 -40 -9 3 -13 2 -10 -4 3
-6 12 -10 19 -10 19 0 58 40 53 55 -6 13 59 50 82 46 7 -1 10 2 7 8 -4 5 -2
12 3 15 22 14 23 -18 1 -36 -12 -10 -18 -18 -13 -18 5 0 14 5 21 12 7 7 12 8
12 2 0 -5 -5 -15 -12 -22 -14 -14 -52 3 -42 19 4 7 -4 6 -17 -1 -33 -18 -38
-24 -12 -16 16 5 22 4 20 -6 -2 -7 -2 -9 1 -5 2 4 10 3 18 -4 11 -9 18 -8 32
5 10 9 22 13 25 9 4 -3 7 -2 7 3 0 6 -5 15 -12 22 -16 16 4 16 22 0 8 -7 5 -1
-8 13 -28 32 -28 39 3 39 14 0 25 -5 25 -11 0 -6 -7 -8 -17 -5 -15 6 -15 5 1
-13 17 -19 19 -19 42 -3 13 9 24 21 24 25 0 5 4 6 9 3 4 -3 8 5 7 17 -1 15 -8
22 -23 23 -12 1 -20 -3 -17 -7 3 -5 0 -9 -7 -9 -7 0 -10 -3 -7 -6 4 -3 16 -1
27 6 30 16 25 0 -11 -35 -27 -26 -30 -27 -24 -8 5 15 2 25 -11 32 -16 9 -16
10 -2 11 9 0 20 7 23 16 4 9 9 14 12 11 3 -3 13 1 22 8 64 52 116 86 130 86
54 -3 62 -6 57 -21 -3 -9 1 -8 10 4 19 25 19 40 1 33 -7 -3 -20 0 -27 6 -11
10 -11 9 0 -5 16 -22 -1 -24 -19 -3 -9 10 -9 15 -1 15 6 0 28 16 49 35 31 27
41 32 52 22 10 -10 12 -9 7 5 -3 9 2 23 12 32 23 21 26 20 28 -5 2 -17 -1 -18
-13 -9 -10 9 -14 9 -14 1 0 -6 5 -11 12 -11 6 0 4 -8 -6 -19 -10 -11 -28 -18
-42 -16 -21 2 -22 0 -12 -13 11 -13 10 -15 -3 -10 -9 3 -22 3 -28 -2 -9 -5 -3
-8 14 -8 14 0 29 6 31 12 3 7 14 12 25 13 18 2 19 0 7 -15 -12 -15 -11 -16 4
-4 9 8 15 19 12 26 -3 7 1 13 8 13 8 0 26 8 41 17 21 15 25 22 17 37 -9 16 -7
18 21 14 22 -3 29 0 26 9 -8 21 21 56 40 49 12 -5 10 0 -5 15 -24 24 -41 30
-23 8 9 -10 8 -16 -3 -26 -9 -6 -19 -9 -24 -6 -5 3 -18 -7 -29 -23 -15 -20
-18 -32 -11 -44 6 -11 5 -17 -1 -17 -5 0 -12 6 -15 13 -3 6 -4 3 -3 -7 1 -10
-3 -21 -9 -23 -12 -4 -12 26 1 46 5 10 4 12 -3 7 -7 -4 -12 -2 -12 3 0 6 6 11
13 11 7 0 23 14 37 30 24 29 49 42 34 18 -5 -7 -3 -8 5 -4 7 5 10 14 7 22 -8
21 25 30 39 11 9 -13 14 -14 25 -4 10 10 12 8 6 -8 -6 -18 -5 -19 7 -3 8 10
18 14 22 10 5 -4 5 -1 1 6 -4 7 -12 9 -18 6 -7 -5 -9 -1 -5 9 3 8 0 18 -7 20
-10 4 -12 -1 -9 -14 3 -11 0 -19 -6 -19 -7 0 -9 5 -6 10 4 6 3 10 -2 9 -21 -4
-20 3 3 26 14 14 28 25 31 25 3 0 12 8 20 18 14 16 14 16 9 -1 -3 -9 -1 -17 5
-17 6 0 9 10 7 23 -1 12 0 22 2 22 12 2 48 39 44 46 -2 4 5 10 16 14 11 4 18
11 15 16 -4 5 3 9 14 9 12 0 21 5 21 11 0 5 -6 7 -12 3 -7 -4 -1 5 15 21 15
15 27 32 27 37 0 5 4 7 9 4 4 -3 13 6 19 19 7 14 16 25 22 25 5 0 10 6 10 14
0 18 26 39 39 32 12 -8 3 -36 -11 -36 -6 0 -7 8 -3 18 5 13 3 14 -6 5 -6 -6
-9 -16 -5 -21 10 -16 56 -11 66 8 6 10 18 26 27 36 17 17 17 18 0 11 -12 -5
-17 -3 -15 5 2 6 14 12 26 13 32 2 38 12 7 12 -14 0 -28 -4 -31 -9 -4 -6 -10
-5 -16 3 -7 10 -8 8 -3 -7 8 -30 -18 -50 -36 -27 -12 15 -12 16 4 10 12 -4 17
-2 15 6 -3 12 39 79 54 85 4 2 8 8 8 13 0 12 52 70 58 64 2 -2 -8 -18 -22 -36
-15 -17 -24 -34 -21 -37 3 -3 6 -3 8 -1 1 2 12 18 24 35 13 18 20 40 17 52 -5
17 -2 19 20 15 14 -3 26 -1 26 5 0 5 -6 9 -12 8 -7 0 -13 4 -13 9 0 6 5 9 11
9 7 -1 9 7 6 20 -5 21 -5 21 15 1 11 -11 16 -22 12 -23 -5 -2 -9 -8 -9 -13 0
-6 4 -8 9 -5 5 4 11 3 14 -1 2 -5 2 -2 1 5 -2 6 1 12 6 12 5 0 -2 11 -16 25
-24 24 -25 26 -7 49 10 13 22 22 26 19 5 -3 7 3 5 12 -2 10 4 20 12 22 13 4
13 3 0 -6 -12 -8 -12 -11 -1 -11 7 0 11 -6 8 -14 -3 -8 1 -22 8 -33 8 -10 15
-13 15 -7 0 6 -3 14 -7 18 -11 11 -10 47 1 43 6 -2 10 -13 8 -23 -2 -17 -2
-18 8 -2 15 24 13 31 -6 34 -31 5 -37 21 -19 48 10 14 22 26 29 26 6 0 4 -4
-4 -10 -8 -5 -12 -12 -8 -15 3 -4 16 3 29 16 15 15 17 20 6 16 -9 -3 -19 -2
-22 3 -4 6 2 10 12 10 15 0 16 2 3 10 -8 5 -13 10 -10 11 3 0 16 2 29 5 20 4
22 2 11 -11 -11 -13 -10 -14 4 -9 21 8 15 30 -8 28 -18 -2 -22 11 -6 21 6 4 8
10 5 15 -3 4 2 13 10 20 8 7 15 19 15 26 0 8 5 14 12 14 6 0 9 3 5 6 -3 4 4
25 15 48 12 22 23 43 24 46 1 3 5 15 9 27 4 13 12 23 17 23 5 0 7 4 3 9 -3 5
-1 12 5 16 5 3 10 -1 10 -9 0 -9 4 -16 9 -16 5 0 4 14 -2 30 -9 25 -9 33 1 39
8 5 13 11 13 15 -3 19 0 26 10 26 8 0 7 -6 -2 -17 -11 -15 -11 -16 1 -6 21 19
35 15 18 -4 -9 -10 -13 -25 -10 -33 5 -13 3 -13 -12 -1 -14 12 -16 12 -10 -3
4 -11 13 -15 26 -10 15 4 18 3 13 -6 -6 -9 -4 -11 4 -6 9 6 8 13 -6 28 -18 20
-17 21 7 14 14 -3 19 -3 13 0 -20 9 -15 27 5 20 16 -6 16 -5 0 6 -9 7 -24 18
-34 23 -16 10 -15 15 9 65 14 29 24 57 21 62 -3 4 1 8 9 8 16 0 40 -24 32 -32
-3 -2 2 -5 10 -5 20 0 19 2 -9 30 -14 14 -28 22 -31 18 -4 -3 -2 5 3 19 6 14
13 34 17 45 5 16 8 17 15 5 5 -8 12 -12 15 -8 3 3 -1 13 -9 21 -17 16 -11 51
6 41 6 -4 5 -10 -3 -16 -11 -7 -9 -8 5 -4 13 4 17 2 13 -8 -3 -7 0 -19 6 -25
13 -13 6 -22 -22 -24 -13 -1 -17 -5 -11 -11 5 -5 19 -2 36 9 15 9 23 20 18 24
-16 11 -15 34 3 55 10 11 24 32 32 46 13 22 12 24 -1 13 -15 -13 -28 -8 -28 9
0 5 6 6 13 2 6 -4 3 2 -7 14 -21 24 -36 31 -17 8 8 -10 8 -16 -3 -25 -8 -6
-12 -20 -9 -30 3 -11 -1 -18 -11 -18 -17 0 -13 30 7 55 5 7 7 15 4 18 -3 3 1
27 9 52 14 43 20 71 28 127 2 11 5 22 6 25 1 3 3 10 4 15 11 57 20 85 28 85 6
0 7 -8 4 -17 -6 -17 -5 -17 8 0 7 9 19 17 26 17 7 0 -1 -14 -19 -30 -31 -30
-44 -53 -16 -30 8 7 15 8 15 2 0 -5 -7 -15 -15 -22 -12 -10 -15 -10 -15 0 0 8
-3 11 -6 7 -3 -3 1 -16 11 -29 14 -20 16 -21 13 -4 -2 13 5 24 20 32 20 10 21
12 6 18 -15 6 -15 8 2 27 10 11 19 25 20 32 2 7 5 23 8 35 4 20 3 22 -9 12 -8
-6 -12 -17 -9 -24 5 -14 -22 -26 -43 -19 -23 8 -14 25 10 18 18 -5 19 -4 5 5
-16 10 -17 44 -2 125 7 37 15 104 15 126 0 18 45 43 60 34 5 -4 9 -1 9 5 0 6
-10 11 -22 10 -47 -4 -55 5 -35 38 5 6 5 17 1 23 -4 7 -1 10 7 7 8 -3 13 -12
13 -21 -1 -9 4 -13 13 -10 8 3 13 0 11 -7 -2 -7 3 -14 10 -16 7 -1 8 0 2 3 -7
3 -7 10 2 21 10 12 10 14 1 8 -7 -4 -13 -3 -13 2 0 5 -11 15 -25 22 -16 9 -25
22 -25 37 0 15 4 22 11 18 6 -4 8 -12 6 -19 -3 -7 7 -19 22 -28 22 -12 28 -12
28 -2 0 7 -4 11 -9 8 -12 -8 -10 10 3 23 9 9 5 20 -15 44 -19 22 -27 27 -24
14 1 -10 -2 -20 -7 -21 -6 -3 -10 17 -10 46 0 27 3 50 6 50 12 0 18 -14 11
-24 -5 -7 6 -24 25 -44 18 -18 33 -29 33 -24 0 5 -7 15 -16 23 -14 12 -14 14
2 26 10 7 13 13 7 13 -7 0 -15 -5 -18 -10 -7 -12 -25 -4 -25 11 0 6 4 8 8 5 4
-2 13 -1 20 3 9 5 7 13 -7 28 -14 15 -17 23 -8 32 14 14 30 15 22 1 -3 -5 -2
-18 4 -27 8 -15 10 -14 7 7 -1 14 -5 31 -9 37 -4 6 -1 14 5 17 9 4 8 5 -2 4
-8 -1 -28 2 -43 7 -20 5 -25 10 -16 16 7 4 21 3 30 -2 28 -15 35 -10 11 7 -12
8 -27 12 -32 9 -6 -3 -10 0 -11 7 0 7 -2 28 -3 46 -1 17 1 32 5 32 12 0 25
-25 23 -47 -1 -14 3 -20 12 -16 8 3 14 10 14 17 0 6 5 4 10 -4 6 -9 10 -10 10
-3 0 6 -5 15 -10 18 -6 4 -8 11 -5 16 4 5 -2 6 -12 2 -16 -6 -16 -5 -4 10 25
32 22 65 -10 88 -16 11 -29 16 -29 11 0 -6 7 -12 15 -16 8 -3 13 -11 11 -18
-1 -7 -1 -10 1 -5 8 13 19 7 20 -12 2 -20 -11 -22 -36 -7 -9 6 -12 5 -7 -2 3
-6 2 -13 -4 -17 -6 -4 -9 6 -6 27 2 18 -1 39 -6 46 -7 8 -7 12 1 12 7 0 9 5 4
13 -4 6 -8 30 -9 52 -1 22 -5 59 -8 82 -6 44 1 55 38 57 13 1 20 7 17 16 -2 8
-4 22 -5 31 0 9 -6 15 -13 12 -9 -4 -9 -11 4 -29 9 -14 11 -24 5 -24 -6 0 -15
8 -21 17 -5 10 -13 14 -17 10 -5 -5 -3 -12 5 -16 10 -6 9 -10 -4 -15 -24 -9
-25 -8 -21 17 2 12 -2 28 -8 36 -9 12 -8 13 3 6 11 -6 13 -4 7 11 -5 10 -8 26
-9 34 0 8 -5 21 -11 29 -8 11 -8 13 2 7 6 -4 12 -2 12 3 0 6 -5 11 -11 11 -6
0 -1 13 9 28 l20 28 -29 16 c-16 10 -29 22 -29 27 0 6 16 1 35 -11 20 -11 39
-18 42 -14 4 3 1 6 -4 6 -6 0 -10 12 -8 26 1 16 -6 33 -19 46 -15 15 -17 19
-4 15 10 -4 15 -1 14 8 -3 24 -38 54 -58 52 -14 -1 -23 8 -32 35 -8 21 -12 39
-10 41 3 2 -3 21 -12 42 -12 29 -13 40 -3 49 9 8 10 7 6 -7 -4 -10 -3 -16 2
-13 5 3 15 -2 22 -11 12 -15 12 -16 -2 -11 -13 5 -16 2 -12 -12 5 -19 6 -18
24 3 19 21 19 21 17 2 -2 -11 -12 -28 -23 -38 -19 -17 -19 -17 12 0 17 10 29
20 25 23 -6 5 -11 24 -14 58 -1 6 -5 12 -10 12 -5 0 -6 -10 -3 -22 7 -21 6
-22 -10 -7 -16 16 -16 18 0 43 16 23 16 26 1 20 -9 -3 -14 -10 -11 -14 3 -5 1
-11 -4 -14 -5 -3 -12 1 -15 10 -9 22 -8 24 11 24 9 0 14 3 10 6 -3 3 -15 3
-27 -1 -17 -5 -19 -9 -9 -21 6 -8 9 -17 5 -21 -11 -11 -19 6 -18 37 0 21 -3
28 -11 24 -7 -4 -9 -4 -5 1 4 4 3 14 -3 22 -9 10 -8 17 2 30 8 9 9 14 3 10 -6
-3 -16 4 -22 17 -8 19 -7 26 9 40 24 20 33 21 25 0 -3 -8 -2 -12 3 -9 5 3 13
-4 16 -16 4 -11 9 -18 12 -16 2 3 -2 18 -11 35 -8 16 -13 31 -11 34 2 2 -4 4
-13 4 -9 1 -25 5 -36 9 -14 6 -17 5 -14 -6 3 -8 14 -13 24 -11 18 3 18 3 2
-14 -20 -21 -20 -21 -40 32 -14 39 -14 43 2 57 9 8 23 17 31 20 11 4 10 6 -2
6 -9 1 -22 -6 -29 -14 -7 -8 -16 -15 -20 -15 -7 0 -35 80 -32 93 1 4 -3 7 -9
7 -5 0 -7 5 -4 10 3 6 2 10 -4 10 -6 0 -14 12 -17 28 -4 15 -10 29 -13 32 -11
9 -71 127 -71 139 0 7 -7 19 -16 28 -8 9 -13 22 -10 30 3 8 2 12 -3 9 -4 -3
-14 7 -22 22 -7 15 -22 40 -32 55 -16 24 -17 30 -5 45 11 15 11 16 -3 4 -14
-11 -22 -4 -59 55 -24 38 -43 73 -43 80 0 7 -4 10 -7 8 -9 -6 -63 74 -63 92 0
7 -4 10 -8 7 -4 -2 -18 10 -30 28 -92 132 -374 427 -543 566 -188 156 -406
299 -626 411 -123 63 -309 146 -349 157 -9 2 -63 20 -121 40 -108 36 -337 98
-400 108 -19 3 -71 12 -115 20 -44 9 -105 18 -136 21 -31 3 -65 7 -76 9 -49
10 -459 27 -466 20z m-14 -428 c8 5 8 2 0 -7 -7 -7 -13 -19 -13 -27 0 -8 -10
-22 -22 -33 -13 -10 -17 -18 -10 -19 6 0 12 5 12 10 0 6 4 10 9 10 5 0 8 -10
6 -22 -1 -13 -5 -48 -9 -78 -4 -30 -11 -80 -16 -110 -5 -30 -12 -80 -15 -110
-4 -30 -8 -57 -10 -60 -1 -3 -6 -32 -9 -65 -4 -33 -9 -67 -11 -75 -2 -8 -7
-37 -10 -65 -3 -27 -15 -111 -26 -185 -11 -74 -22 -151 -25 -170 -3 -19 -7
-46 -9 -60 -3 -14 -7 -45 -10 -70 -3 -25 -14 -103 -25 -175 -11 -71 -22 -150
-25 -175 -3 -25 -8 -56 -11 -70 -2 -14 -6 -39 -8 -56 -5 -36 -25 -176 -32
-219 -3 -16 -12 -75 -19 -130 -8 -55 -17 -116 -19 -135 -3 -19 -17 -114 -31
-210 -26 -184 -27 -187 -45 -316 -14 -93 -12 -90 -65 -129 -22 -16 -42 -32
-45 -35 -3 -3 -140 -112 -304 -241 -164 -128 -437 -342 -605 -474 -168 -133
-479 -377 -691 -543 -212 -166 -390 -306 -397 -312 -7 -5 -17 -10 -23 -10 -5
0 -10 -9 -10 -21 0 -18 -2 -19 -15 -5 -16 15 -21 41 -7 32 15 -9 31 9 22 24
-8 13 -10 13 -10 -1 0 -33 -32 -14 -56 33 -13 26 -21 48 -17 48 5 0 3 4 -2 8
-11 7 -61 114 -67 142 -2 8 -7 18 -13 22 -5 4 -6 10 -2 14 3 4 13 1 22 -6 17
-14 21 -35 5 -25 -6 3 -10 4 -10 1 0 -15 20 -13 39 3 24 21 29 40 5 21 -12
-11 -18 -10 -32 4 -16 17 -16 18 4 12 23 -7 42 18 23 29 -5 4 -7 11 -4 16 4 5
1 9 -4 9 -14 0 -14 -17 -1 -25 6 -4 7 -11 4 -17 -4 -6 -13 -1 -21 13 -8 13
-12 16 -9 7 3 -10 1 -20 -5 -24 -13 -7 -41 15 -33 28 3 5 1 15 -6 23 -17 21 6
61 26 45 7 -7 12 -15 10 -19 -3 -4 -1 -13 3 -19 6 -10 11 -9 21 3 11 13 10 14
-6 8 -17 -6 -18 -5 -4 12 12 15 12 17 1 10 -11 -6 -13 -4 -8 8 4 12 2 14 -11
10 -15 -6 -16 -5 -2 13 14 18 14 18 -2 5 -11 -8 -18 -9 -18 -3 0 6 8 16 18 21
10 6 12 11 4 11 -7 0 -10 4 -7 10 3 5 0 21 -8 36 -12 22 -15 24 -20 10 -4 -10
-3 -15 3 -11 6 3 10 4 10 1 0 -2 3 -13 7 -23 6 -16 5 -16 -10 -4 -11 9 -17 10
-17 2 0 -6 4 -11 8 -11 13 0 7 -59 -8 -73 -10 -10 -12 -9 -7 6 4 9 2 17 -3 17
-6 0 -10 5 -10 11 0 5 4 7 10 4 5 -3 10 -1 10 4 0 6 -6 11 -13 11 -14 0 -42
83 -51 150 -1 9 -5 20 -8 25 -7 12 -20 78 -17 85 1 3 -3 16 -10 29 -13 23 -12
23 23 -4 20 -15 36 -23 37 -19 0 5 2 17 4 27 2 9 -1 15 -6 11 -5 -3 -7 -10 -4
-15 8 -12 -2 -11 -26 2 -14 7 -18 16 -14 30 4 11 2 19 -5 19 -6 0 -8 -4 -5
-10 3 -5 1 -10 -5 -10 -7 0 -9 8 -5 21 5 16 4 19 -5 14 -8 -5 -11 -3 -8 5 2 7
15 15 27 17 19 3 22 1 12 -11 -9 -11 -8 -15 3 -19 11 -4 13 -1 9 10 -5 12 -3
14 8 8 11 -7 11 -5 -1 10 -11 13 -12 19 -3 22 15 5 7 52 -12 74 -10 11 -12 18
-4 26 7 7 6 12 -5 16 -11 4 -13 1 -9 -10 5 -12 3 -14 -8 -8 -11 6 -12 5 -1 -6
16 -17 16 -34 -1 -21 -10 8 -13 6 -14 -11 -1 -12 1 -17 5 -12 13 18 39 16 45
-4 6 -24 -13 -53 -37 -57 -18 -3 -18 -2 -10 20 3 9 12 16 20 16 8 0 14 5 14
10 0 7 -6 7 -19 0 -30 -16 -33 -13 -29 30 2 22 0 40 -5 40 -5 0 -7 9 -4 20 3
11 2 20 -2 20 -4 0 -7 17 -6 38 0 20 -3 47 -7 60 -6 16 -4 22 5 20 15 -3 57
24 57 36 0 6 -5 5 -12 -2 -17 -17 -33 -15 -19 2 9 11 8 15 -6 21 -10 5 -25 8
-33 7 -10 -1 -11 0 -2 4 6 3 10 10 7 14 -13 21 -12 99 1 104 8 3 14 1 14 -4 0
-6 -6 -10 -12 -11 -10 0 -10 -2 -1 -5 6 -3 10 -17 7 -32 -3 -18 -2 -23 5 -13
6 9 11 10 15 2 4 -6 0 -14 -8 -17 -23 -9 -20 -17 12 -36 28 -16 28 -16 28 8 0
13 -4 24 -9 24 -5 0 -7 -7 -3 -15 6 -18 -10 -20 -20 -3 -4 6 3 20 17 31 17 15
19 18 6 14 -13 -5 -17 -3 -14 5 2 7 10 12 17 10 11 -2 10 1 0 15 -8 10 -16 20
-18 23 -2 3 -2 -4 0 -14 1 -10 -2 -21 -9 -23 -7 -2 -10 3 -8 14 2 10 4 24 4
32 1 7 7 11 16 8 8 -4 17 -2 20 3 6 9 -36 7 -53 -4 -6 -3 -13 -2 -16 3 -4 5 3
12 14 16 20 7 28 25 10 25 -5 0 -10 -4 -10 -10 0 -5 -4 -10 -8 -10 -16 0 -9
27 10 39 11 7 18 7 18 1 0 -5 5 -10 11 -10 8 0 7 6 -2 16 -12 15 -11 16 11 10
19 -6 22 -5 10 3 -13 10 -13 12 0 21 8 5 11 10 6 10 -6 0 -22 -12 -38 -27 -15
-14 -31 -23 -35 -20 -4 4 3 14 15 23 13 9 22 21 21 27 -4 33 2 49 15 44 11 -4
13 -1 9 10 -4 9 -2 14 3 11 5 -4 9 13 10 37 0 35 -3 42 -13 33 -9 -7 -13 -7
-13 1 0 6 7 14 15 17 8 4 15 11 15 17 0 5 -8 3 -18 -6 -29 -27 -38 -20 -11 9
21 22 21 24 4 18 -17 -7 -18 -6 -7 8 10 13 10 17 -2 21 -11 4 -13 1 -9 -10 5
-12 3 -14 -8 -8 -11 6 -12 5 -2 -6 14 -14 18 -33 5 -25 -4 2 -8 -9 -9 -26 0
-18 2 -25 7 -18 5 8 10 9 14 2 4 -6 -2 -16 -11 -22 -13 -8 -14 -13 -5 -16 6
-3 9 -11 6 -16 -4 -7 -2 -8 4 -4 6 4 9 13 6 20 -3 7 2 18 10 25 12 11 14 9 12
-13 -3 -28 -24 -58 -36 -51 -5 3 -6 -3 -3 -14 3 -10 0 -22 -7 -26 -14 -9 -28
3 -15 13 6 4 11 48 11 97 2 131 8 205 17 205 4 0 7 -5 7 -12 0 -6 3 -9 6 -6 3
4 0 16 -6 28 -8 15 -8 20 -1 16 6 -4 11 -2 11 3 0 6 -6 11 -12 11 -7 0 1 9 17
20 17 11 25 20 19 20 -5 0 -16 -6 -23 -12 -10 -11 -11 -7 -6 17 3 17 8 46 11
65 3 19 8 46 10 60 3 14 6 33 7 43 1 9 3 17 6 17 2 0 10 -8 17 -17 12 -16 12
-16 7 5 -3 13 -1 22 6 22 7 0 10 -4 7 -8 -2 -4 5 -9 17 -9 21 -2 22 -2 3 13
-11 8 -28 12 -38 9 -14 -5 -16 -1 -12 17 3 13 7 34 10 48 3 14 10 30 15 35 7
7 8 3 4 -10 -5 -15 -5 -17 3 -6 6 9 7 22 2 31 -5 10 -1 35 10 68 10 28 16 52
14 52 -3 0 -2 6 3 13 4 6 8 19 10 27 1 8 7 16 13 18 5 2 7 8 4 13 -3 6 2 21
11 35 9 13 13 30 9 36 -4 6 -1 9 7 6 21 -7 19 -47 -2 -62 -11 -7 -16 -16 -11
-20 4 -4 -1 -13 -11 -21 -15 -10 -15 -14 -3 -18 9 -4 12 -14 9 -27 -4 -14 -11
-19 -22 -15 -8 3 -12 2 -7 -2 10 -10 56 -12 50 -2 -2 4 -1 9 3 12 5 2 2 2 -4
1 -7 -2 -13 1 -13 6 0 9 15 14 33 11 5 -1 6 3 2 8 -3 6 -12 8 -20 5 -9 -4 -12
0 -10 13 2 10 4 24 4 31 1 9 8 11 20 7 14 -4 23 0 31 15 6 11 8 20 5 20 -4 0
-3 6 2 13 4 6 8 17 9 22 3 26 17 55 26 55 6 0 5 6 -2 14 -12 16 -40 11 -40 -6
0 -6 6 -5 15 2 19 16 19 7 0 -31 -9 -16 -13 -34 -10 -39 11 -17 -12 -11 -36
11 -23 19 -23 20 -3 14 27 -7 39 18 19 38 -12 12 -10 16 10 27 23 12 23 14 7
27 -15 12 -16 14 -1 26 9 6 14 17 12 23 -2 7 3 18 11 27 8 8 12 17 9 21 -4 3
-1 6 5 6 7 0 11 3 10 8 -4 16 14 52 27 52 8 0 17 4 20 10 3 6 -1 7 -10 4 -12
-5 -10 6 12 50 15 31 31 56 35 56 5 0 1 -11 -8 -25 -15 -23 -15 -25 0 -19 9 3
14 10 11 14 -8 14 20 29 47 26 15 -2 27 0 26 3 -3 15 15 40 25 34 6 -4 7 -1 2
7 -4 7 -2 16 6 22 11 8 10 8 -4 4 -12 -4 -17 -2 -14 6 2 7 13 12 23 11 10 -1
13 0 6 3 -18 8 -4 24 16 18 16 -5 16 -5 0 6 -10 6 -18 16 -18 22 0 7 4 7 13 0
8 -7 18 -8 27 -1 12 8 11 9 -4 7 -10 -2 -21 3 -23 10 -3 7 1 10 10 6 15 -5 47
20 47 37 0 5 -7 12 -15 15 -8 4 -12 10 -9 15 3 5 10 7 15 4 5 -4 9 -1 9 4 0
16 -8 14 -40 -9 -21 -15 -27 -26 -23 -43 4 -17 2 -19 -5 -7 -8 10 -10 4 -8
-23 2 -25 -1 -36 -8 -34 -25 9 1 93 37 118 5 3 8 10 8 15 0 5 10 20 22 34 12
14 21 28 19 33 -1 4 5 7 14 7 10 0 14 -6 11 -14 -4 -10 -1 -13 7 -10 9 3 13
-3 12 -18 -1 -26 -36 -33 -44 -8 -5 13 -3 13 11 1 10 -7 17 -9 17 -3 0 16 -28
22 -39 8 -10 -12 -5 -16 52 -44 4 -2 7 0 6 5 -4 17 14 43 25 36 6 -3 -3 9 -21
28 -23 24 -30 38 -23 49 7 12 12 11 29 -5 24 -21 20 -35 -4 -15 -9 7 -17 11
-19 9 -2 -2 9 -14 25 -27 19 -16 30 -19 35 -11 4 8 3 9 -4 5 -14 -8 -15 -4 -6
18 3 9 9 14 14 11 4 -2 16 2 26 10 13 11 14 13 3 10 -10 -4 -16 0 -16 10 0 9
6 14 13 11 9 -3 11 1 7 12 -6 14 -4 15 9 4 12 -9 18 -10 23 -2 4 6 4 14 1 17
-3 4 -6 1 -6 -6 0 -7 -4 -10 -8 -7 -4 3 -7 23 -6 45 1 28 -2 38 -10 34 -14 -9
46 67 72 90 12 11 25 16 30 13 10 -6 9 -36 -2 -54 -8 -13 -26 -7 -26 9 0 6 5
7 10 4 5 -3 10 -1 10 4 0 13 -10 14 -27 3 -17 -11 7 -38 33 -38 15 0 20 5 16
16 -5 13 -4 13 14 0 19 -14 19 -14 0 8 -11 12 -17 24 -15 26 9 9 58 14 61 6 2
-4 9 -2 16 6 11 13 9 14 -13 10 -22 -4 -26 -2 -21 12 5 15 5 15 -8 0 -16 -22
-30 -23 -45 -4 -10 11 -8 16 7 20 11 4 22 16 25 26 3 11 16 24 29 29 12 6 20
10 15 10 -4 1 5 14 19 31 15 16 31 27 35 24 15 -9 10 -24 -5 -18 -8 3 -17 1
-21 -5 -3 -6 0 -9 8 -5 10 3 14 -2 13 -17 0 -12 -7 -24 -14 -27 -7 -2 -10 2
-6 12 3 9 2 16 -3 16 -5 0 -9 -9 -10 -20 -2 -22 21 -27 33 -8 5 7 11 5 21 -7
7 -11 13 -14 13 -8 0 7 -5 15 -10 18 -5 3 -10 11 -10 17 0 6 8 4 19 -6 17 -15
19 -15 32 1 13 16 12 17 -3 4 -11 -8 -18 -9 -18 -3 0 6 4 13 9 17 6 3 9 14 8
25 -1 10 -5 16 -9 14 -4 -3 -8 0 -8 6 0 6 8 10 18 8 9 -2 16 -11 14 -20 -1 -9
2 -19 8 -23 6 -4 7 1 3 11 -4 12 -3 15 5 10 7 -4 12 -3 12 2 0 6 -7 12 -15 16
-8 3 -15 11 -15 17 0 8 4 8 15 -1 9 -8 15 -8 15 -2 0 6 -4 12 -9 14 -5 2 -1
14 10 27 17 21 23 23 46 12 21 -10 29 -9 38 1 10 10 8 17 -7 31 -17 17 -19 17
-16 1 2 -9 -3 -19 -10 -21 -8 -3 -10 2 -6 14 3 11 2 14 -3 7 -11 -14 -43 -26
-43 -15 0 4 12 14 26 21 14 8 30 22 35 32 5 10 15 18 21 18 7 0 6 -5 -2 -15
-9 -11 -9 -15 -1 -15 7 0 10 -3 8 -7 -2 -5 5 -17 16 -27 15 -14 19 -15 15 -4
-8 19 47 62 65 52 9 -6 9 -4 -1 8 -11 13 -9 16 13 16 14 0 25 -6 25 -12 1 -6
7 0 14 13 8 14 21 26 31 27 10 1 23 8 29 15 8 9 7 9 -9 1 -13 -7 -26 -7 -37
-1 -11 6 -25 6 -35 1 -10 -5 -25 -7 -33 -5 -10 3 -9 0 3 -7 9 -6 17 -16 17
-22 0 -9 -3 -9 -12 0 -9 9 -16 4 -30 -19 -20 -32 -35 -34 -52 -6 -8 12 -7 20
3 29 11 11 12 10 6 -2 -5 -8 6 0 23 19 18 18 38 31 45 28 17 -7 44 9 34 20 -5
4 -12 1 -17 -7 -6 -8 -10 -10 -10 -4 0 7 11 19 24 27 20 14 26 14 43 2 18 -13
21 -12 32 12 6 14 9 28 6 31 -3 4 -8 -4 -12 -16 -6 -23 -18 -29 -27 -13 -7 10
99 83 108 74 11 -12 6 -21 -11 -19 -11 0 -17 -5 -15 -13 2 -9 -3 -11 -15 -7
-14 5 -15 4 -7 -4 9 -9 17 -9 31 -1 27 14 49 41 34 41 -6 0 -11 4 -11 9 0 18
48 9 53 -10 6 -21 -27 -68 -38 -57 -4 4 0 14 9 23 9 9 16 20 16 25 0 4 -15 -7
-34 -26 -22 -22 -40 -32 -50 -28 -9 3 -16 1 -16 -5 0 -14 -36 -51 -50 -51 -5
0 -9 5 -7 12 1 6 -7 13 -18 15 -18 3 -18 2 -2 -5 10 -4 19 -12 20 -17 1 -6 9
-9 17 -7 8 2 23 3 33 3 9 0 17 5 17 11 0 5 6 8 13 5 7 -3 21 1 32 9 10 8 14
14 9 14 -6 0 -14 -3 -18 -7 -11 -11 -47 -10 -43 1 3 6 10 10 17 8 7 -1 18 2
25 8 7 6 19 8 27 5 9 -4 22 1 31 9 8 8 18 12 21 8 4 -3 4 2 0 13 -7 18 -6 19
11 5 18 -14 18 -14 2 11 -16 24 -14 39 4 39 5 0 6 -6 3 -13 -3 -8 3 -20 13
-27 15 -12 16 -12 6 0 -17 18 -17 38 -1 22 18 -18 26 -15 43 18 12 23 13 35 5
50 -15 28 -17 26 -17 -20 0 -49 -7 -58 -30 -38 -10 9 -33 15 -50 13 -26 -1
-31 1 -22 12 6 7 16 10 21 7 6 -4 13 -2 17 3 13 19 64 52 72 47 5 -3 9 -1 9 4
0 5 12 14 26 20 14 7 23 9 20 4 -6 -9 39 -10 49 0 3 3 0 5 -9 5 -8 -1 -14 3
-13 8 1 6 12 9 25 7 12 -1 22 2 22 8 0 6 -6 8 -12 4 -10 -6 -10 -4 0 7 9 10
15 10 24 1 10 -10 5 -20 -24 -47 -36 -34 -56 -45 -43 -25 3 6 1 10 -4 10 -13
0 -13 -3 -5 -24 5 -13 9 -14 20 -5 11 9 18 8 32 -2 15 -13 16 -12 3 4 -12 16
-12 20 3 35 16 16 16 15 14 -7 -2 -13 3 -25 10 -27 7 -1 8 0 2 3 -15 7 -12 26
3 20 8 -3 14 3 14 15 1 11 4 22 7 25 7 7 26 -6 26 -18 0 -6 -4 -7 -10 -4 -5 3
-10 1 -10 -5 0 -23 25 -3 26 21 2 36 -6 42 -27 23 -22 -20 -23 -16 -9 22 l11
27 24 -23 c16 -15 23 -30 20 -41 -3 -10 0 -21 6 -25 8 -4 9 -3 5 4 -4 6 2 20
14 32 21 21 26 40 10 40 -5 0 -9 -3 -9 -7 3 -19 -2 -36 -8 -29 -16 15 -13 46
5 47 12 0 13 2 3 6 -8 3 -20 -2 -27 -11 -8 -11 -14 -13 -19 -6 -7 12 59 44 88
42 9 0 15 3 12 9 -4 5 -1 9 4 9 14 0 14 -13 0 -27 -7 -7 -8 -17 -1 -29 5 -11
8 -25 6 -32 -1 -7 0 -8 3 -2 2 5 9 7 15 4 6 -4 7 0 1 12 -5 11 -8 26 -7 34 1
8 2 21 3 27 2 18 41 41 81 48 19 3 37 10 38 16 7 18 22 8 19 -13 -1 -14 3 -22
11 -21 6 2 12 -5 12 -14 0 -15 2 -14 16 3 14 18 15 18 8 -6 -3 -14 -3 -22 1
-18 11 11 15 59 4 52 -5 -3 -9 0 -9 6 0 6 8 10 17 8 20 -4 24 -35 8 -58 -9
-13 -8 -13 7 -2 9 8 14 20 11 28 -3 8 1 14 11 14 9 0 19 0 23 1 4 0 9 -4 11
-10 2 -7 -4 -9 -15 -5 -15 5 -15 4 -3 -5 11 -8 19 -6 30 8 8 10 22 21 30 24
12 4 12 6 -2 6 -9 1 -20 -4 -23 -9 -4 -6 -11 -8 -16 -5 -11 7 -12 26 -1 24 19
-3 33 2 27 11 -3 6 1 13 9 16 9 3 16 10 16 15 0 5 -9 4 -20 -3 -11 -7 -20 -19
-20 -26 0 -7 -4 -11 -9 -7 -6 3 -14 -3 -20 -12 -8 -16 -13 -16 -31 -5 -27 17
-66 6 -50 -13 9 -11 7 -14 -9 -12 -12 1 -21 4 -21 7 0 17 28 41 50 42 14 1 27
5 30 9 3 4 17 10 32 13 14 2 35 9 45 15 21 11 41 10 61 -3 7 -4 16 -5 19 -2 4
3 1 6 -5 6 -7 0 -12 5 -12 11 0 6 6 9 13 6 6 -2 21 0 31 6 11 5 36 12 55 14
20 3 43 9 51 13 8 4 23 6 33 5 9 -2 17 0 17 3 0 4 10 8 23 9 60 5 108 13 119
19 7 4 8 3 4 -4 -4 -7 -2 -12 3 -12 6 0 11 5 11 11 0 6 9 9 20 6 11 -3 23 -1
26 4 3 5 13 9 22 9 13 0 13 -2 -4 -14 -10 -8 -16 -18 -12 -22 4 -4 3 -13 -3
-21 -10 -11 -16 -11 -36 2 -23 15 -23 15 -11 -4 6 -11 15 -18 19 -15 4 2 15
-4 25 -13 16 -16 16 -16 9 7 -7 22 -6 23 7 12 13 -10 17 -10 21 2 4 9 1 13 -6
10 -7 -2 -13 4 -14 16 -1 11 4 20 13 20 8 0 14 5 14 10 0 6 7 10 16 10 9 0 14
-7 12 -17 -2 -11 -11 -17 -23 -15 -18 2 -19 2 -2 -8 13 -9 15 -15 7 -30 -10
-20 3 -39 15 -20 3 5 19 8 35 6 21 -2 27 0 23 11 -4 10 -9 11 -19 2 -10 -8
-13 -6 -11 10 2 25 10 26 31 6 17 -17 32 -19 41 -5 4 6 -4 20 -17 31 -20 18
-21 20 -3 13 11 -4 28 -7 38 -8 20 0 22 -7 5 -25 -11 -11 -9 -11 9 0 16 9 19
17 12 25 -7 9 -5 14 8 17 10 2 -10 3 -45 2 -34 -1 -65 1 -67 5 -2 4 21 8 53 9
31 1 59 4 62 7 2 3 6 0 8 -5 2 -6 9 -8 15 -5z m325 3 c23 -2 42 -6 42 -9 0 -4
-27 -6 -60 -4 -62 3 -80 -5 -55 -26 8 -7 12 -16 9 -21 -3 -5 0 -9 6 -9 7 0 10
6 7 13 -3 9 4 14 23 14 30 0 33 -14 10 -43 -13 -16 -13 -17 0 -9 8 5 23 8 33
7 9 -2 17 1 17 7 0 6 -6 8 -14 5 -17 -7 -16 20 2 38 9 9 16 8 30 -6 16 -17 16
-18 -7 -11 -21 6 -22 5 -10 -8 9 -9 18 -12 24 -6 5 5 14 9 20 9 5 -1 0 -9 -12
-19 l-23 -19 24 2 c16 1 22 6 18 16 -5 13 -3 13 11 1 11 -9 17 -10 17 -2 0 6
-4 11 -9 11 -10 0 -7 32 4 51 8 11 35 -7 35 -23 0 -6 -7 -5 -15 2 -10 9 -15 9
-15 1 0 -6 5 -11 11 -11 5 0 7 -6 3 -12 -5 -9 -2 -8 9 1 12 9 15 21 11 35 -6
18 -5 19 10 7 13 -11 16 -11 16 0 0 9 3 10 8 4 4 -5 15 -10 25 -11 54 -2 59
-4 53 -20 -3 -8 -2 -12 3 -9 5 3 12 -4 16 -15 7 -20 25 -28 25 -10 0 6 -4 10
-10 10 -5 0 -10 5 -10 11 0 5 5 7 12 3 7 -4 8 -3 4 5 -4 6 -12 9 -17 6 -5 -4
-9 -1 -9 5 0 6 8 9 18 6 17 -5 57 -14 97 -20 69 -12 90 -18 93 -27 2 -5 8 -7
13 -3 17 10 9 -16 -10 -35 -16 -16 -17 -20 -5 -25 9 -3 12 -11 9 -17 -4 -6 2
-5 13 2 17 11 18 15 7 23 -12 9 -12 15 0 36 8 14 14 20 15 13 0 -7 11 -9 30
-7 17 3 30 1 30 -5 0 -6 14 -11 30 -11 17 0 30 -4 30 -9 0 -13 -55 -8 -73 7
-11 9 -17 10 -22 2 -4 -6 -13 -9 -21 -6 -8 3 -14 1 -14 -4 0 -6 10 -10 23 -10
21 -1 21 -1 -6 -25 -15 -14 -25 -25 -21 -25 4 0 16 7 26 16 14 14 20 14 33 4
8 -7 13 -16 10 -20 -3 -4 11 -7 31 -6 25 1 40 -4 48 -16 7 -10 16 -15 19 -12
3 4 -3 14 -14 23 -19 15 -19 18 -6 30 12 9 21 10 36 1 12 -6 21 -7 21 -3 0 5
-10 13 -22 18 -18 8 -26 6 -40 -10 -20 -24 -24 -7 -5 20 10 12 19 15 28 9 14
-8 33 -14 55 -16 7 -1 7 -8 0 -25 -6 -13 -15 -21 -21 -19 -43 18 -50 19 -39 6
7 -6 24 -13 38 -13 21 -2 25 -6 21 -24 -2 -13 0 -23 5 -23 13 0 19 26 9 41 -5
8 -9 19 -9 25 0 17 32 27 44 14 7 -7 7 -11 1 -10 -29 6 -35 0 -23 -20 13 -21
38 -27 38 -10 0 5 -5 9 -11 7 -6 -1 -13 3 -15 8 -3 6 9 12 26 13 16 1 30 -2
30 -8 0 -6 6 -10 13 -8 17 4 107 -32 107 -43 0 -13 -18 -11 -23 4 -4 9 -6 9
-6 0 -1 -18 18 -26 33 -14 9 7 22 7 44 -1 30 -12 46 -31 21 -25 -6 1 -13 -4
-15 -11 -1 -7 0 -8 3 -2 2 5 9 7 14 4 6 -4 6 -11 -1 -19 -8 -9 -8 -15 0 -20 5
-3 10 -11 10 -17 0 -16 -31 13 -40 37 -4 12 -3 26 4 35 10 13 9 13 -8 0 -18
-14 -19 -13 -12 5 5 15 4 17 -4 9 -8 -8 -6 -21 6 -48 10 -20 22 -36 26 -36 5
0 7 -3 4 -8 -2 -4 9 -8 26 -9 17 0 35 -7 40 -14 8 -11 9 -10 4 4 -4 14 -1 16
18 11 14 -3 27 -1 31 6 5 9 1 10 -16 6 l-24 -7 23 20 c21 18 52 19 52 2 0 -4
16 -13 35 -21 22 -9 35 -20 35 -32 0 -10 -4 -18 -10 -18 -5 0 -10 6 -10 14 0
15 -27 30 -47 27 -7 -1 -13 5 -13 13 0 8 -4 18 -10 21 -6 4 -7 -1 -3 -11 4
-10 0 -22 -11 -29 -11 -9 -13 -15 -6 -20 5 -3 8 -10 5 -15 -3 -5 0 -12 7 -16
7 -4 10 -4 6 1 -4 4 -2 15 5 23 9 13 9 14 0 8 -7 -4 -13 -3 -13 3 0 18 18 21
31 4 11 -13 11 -17 2 -20 -7 -3 -13 -9 -13 -15 0 -7 5 -7 13 1 14 11 27 5 27
-11 0 -5 -4 -6 -10 -3 -5 3 -10 1 -10 -5 0 -6 6 -10 13 -9 26 3 38 -1 31 -12
-4 -8 0 -8 15 0 11 7 21 16 21 22 0 6 5 7 10 4 6 -3 10 -1 10 4 0 13 -3 13
-24 5 -9 -3 -13 -10 -10 -15 9 -15 -14 -10 -30 7 -21 21 -39 54 -32 61 3 3 13
-8 23 -25 15 -25 21 -28 34 -18 9 6 14 18 12 26 -3 11 -1 10 7 -2 6 -10 17
-15 27 -11 10 4 14 2 9 -5 -3 -6 3 -12 15 -14 12 -2 23 -11 25 -20 3 -22 -10
-23 -30 -2 -18 17 -21 7 -6 -16 5 -8 10 -10 10 -5 0 6 5 3 10 -5 10 -17 60
-24 60 -9 0 6 -4 7 -10 4 -5 -3 -10 -2 -10 4 0 20 17 19 48 -2 17 -12 32 -31
32 -41 0 -19 0 -19 -19 0 -10 10 -17 22 -15 26 3 4 -1 10 -7 14 -7 4 -9 3 -6
-3 9 -14 -19 -37 -33 -28 -6 4 -6 -3 1 -19 10 -21 15 -24 27 -14 13 11 14 9 7
-12 l-8 -25 21 25 c12 14 21 20 22 13 0 -6 -4 -14 -10 -18 -5 -3 -7 -12 -4
-20 4 -8 10 -12 15 -9 5 3 9 1 9 -5 0 -6 10 -16 22 -22 17 -9 24 -9 33 5 7 8
15 13 18 9 4 -3 7 -1 7 5 0 14 -2 14 -24 6 -9 -3 -13 -10 -10 -15 11 -18 -14
-8 -39 15 -15 14 -23 27 -18 31 5 3 16 -3 23 -13 12 -18 14 -18 40 -2 16 9 25
21 20 26 -4 5 4 0 18 -11 14 -11 26 -20 28 -21 1 -1 0 -9 -4 -18 -3 -9 -11
-13 -17 -9 -6 4 -7 1 -2 -7 5 -8 1 -18 -10 -27 -11 -7 -14 -13 -8 -13 7 0 15
5 18 10 7 12 25 4 25 -11 0 -6 -4 -7 -10 -4 -5 3 -10 1 -10 -5 0 -7 8 -9 21
-5 15 5 19 4 15 -4 -12 -18 3 -32 23 -21 12 6 22 5 29 -2 18 -18 14 -32 -3
-18 -9 7 -18 10 -22 6 -3 -3 -1 -6 6 -6 7 0 10 -4 7 -8 -2 -4 4 -9 15 -9 23
-2 25 14 2 39 -9 10 -11 18 -5 18 13 0 43 -41 37 -51 -6 -8 25 -22 33 -14 3 3
0 5 -7 5 -7 0 -9 5 -6 10 3 6 1 10 -4 10 -6 0 -11 5 -11 11 0 6 7 8 16 5 9 -3
12 -2 9 5 -4 6 -14 8 -22 5 -10 -4 -13 -2 -10 7 7 18 -46 16 -68 -3 -9 -8 -15
-9 -15 -2 0 6 9 16 20 22 11 6 18 15 15 21 -4 5 1 9 9 9 9 0 16 -4 16 -10 0
-5 6 -10 13 -10 19 0 60 -46 53 -59 -4 -5 -2 -12 4 -16 30 -18 -14 -39 -46
-22 -14 8 -12 3 6 -16 20 -20 28 -23 39 -14 12 10 14 9 8 -6 -4 -11 -1 -20 8
-23 8 -4 12 -10 9 -15 -12 -20 22 -3 37 19 l16 22 19 -21 c19 -21 19 -22 -3
-15 -16 5 -25 2 -32 -13 -9 -17 -5 -24 26 -50 21 -17 41 -31 46 -31 4 0 6 -4
3 -9 -3 -4 14 -8 37 -8 77 -1 79 -2 72 -22 -3 -11 -2 -22 4 -25 14 -9 42 5 34
18 -3 6 0 5 8 -2 12 -11 11 -15 -4 -27 -19 -14 -45 -10 -60 9 -6 7 -7 4 -3 -6
3 -10 2 -18 -3 -18 -18 0 -20 15 -6 37 9 13 12 23 7 23 -5 0 -14 -11 -20 -24
-14 -31 3 -48 39 -40 21 5 22 4 8 -8 -15 -12 -15 -15 -1 -28 14 -13 15 -12 9
3 -6 15 -3 17 13 12 18 -6 25 2 22 27 -1 3 6 9 16 13 9 3 13 3 10 -1 -4 -3 6
-18 22 -32 17 -15 30 -32 30 -40 0 -7 4 -11 8 -8 11 6 52 -48 52 -68 0 -8 4
-18 10 -21 5 -3 8 0 7 7 -2 7 -2 10 0 6 3 -4 5 -11 6 -15 0 -5 10 -16 21 -25
12 -10 17 -17 13 -18 -5 0 5 -12 22 -26 17 -14 29 -30 25 -35 -3 -5 -1 -9 3
-9 9 0 71 -91 69 -100 0 -3 9 -16 22 -30 12 -13 22 -27 22 -32 0 -4 7 -16 15
-25 8 -10 15 -22 14 -26 0 -5 8 -15 18 -23 15 -11 15 -13 2 -8 -10 3 -20 1
-24 -5 -3 -6 -11 -11 -17 -11 -7 0 -7 4 0 13 8 10 6 16 -9 26 -12 7 -18 15
-15 18 3 3 12 0 21 -7 9 -7 18 -10 21 -7 3 3 -4 11 -16 17 -17 9 -26 8 -46 -5
-13 -8 -24 -20 -24 -26 0 -6 7 -3 16 6 12 12 19 13 30 4 8 -6 14 -16 14 -22 0
-7 -4 -7 -12 1 -7 7 -16 12 -21 12 -5 0 1 -9 14 -19 13 -11 21 -23 16 -27 -4
-4 -14 1 -23 12 -14 18 -15 18 -4 -3 6 -13 15 -23 21 -23 6 0 7 -5 3 -12 -4
-7 -3 -8 4 -4 13 8 46 -8 76 -35 11 -10 22 -17 24 -14 7 7 -52 54 -67 55 -12
0 -12 3 -3 12 9 9 17 7 34 -7 l23 -19 -22 24 c-19 20 -24 21 -38 10 -23 -19
-28 -6 -6 14 19 17 21 17 46 -8 14 -14 23 -31 20 -36 -3 -6 -2 -10 3 -10 10 0
38 -60 34 -72 -1 -5 2 -8 8 -8 5 0 10 -6 10 -14 0 -7 7 -19 15 -26 12 -10 13
-16 3 -27 -9 -11 -8 -13 3 -11 8 2 13 -4 13 -14 -1 -10 2 -16 6 -13 7 4 22
-23 25 -45 0 -3 11 -26 24 -53 12 -26 20 -54 17 -63 -3 -8 -2 -13 3 -10 11 7
45 -100 35 -115 -4 -7 -3 -9 3 -6 6 4 13 -2 16 -13 3 -11 1 -18 -3 -15 -5 3
-12 0 -16 -6 -4 -7 -3 -9 2 -6 6 3 14 3 20 -1 12 -9 37 -98 38 -139 1 -17 4
-29 9 -26 4 2 7 -5 7 -16 0 -30 1 -34 11 -53 7 -13 6 -18 -3 -18 -10 0 -10 -2
-1 -8 7 -4 15 -26 18 -47 8 -49 11 -70 19 -115 4 -19 9 -51 10 -70 2 -19 10
-84 17 -145 7 -60 13 -127 13 -147 0 -21 3 -38 6 -38 8 0 4 -279 -4 -364 -29
-284 -85 -528 -177 -776 -22 -58 -43 -114 -49 -125 -5 -11 -31 -68 -59 -127
-27 -60 -53 -108 -57 -108 -5 0 -22 13 -39 29 -16 16 -145 120 -285 230 -140
111 -262 207 -270 214 -8 7 -287 227 -620 490 -333 263 -630 498 -660 523 -30
24 -104 83 -165 132 -65 52 -111 95 -112 107 -2 11 -28 191 -58 400 -66 447
-163 1117 -170 1160 -2 17 -23 158 -46 315 -22 157 -55 383 -73 503 -20 136
-28 217 -21 217 6 0 7 3 0 8 -5 4 -11 14 -11 22 -1 8 -5 23 -9 32 -5 13 -1 20
16 27 13 5 27 7 30 5 3 -1 24 -4 47 -5z m-435 -40 c38 -29 26 -37 -12 -9 -29
20 -36 17 -33 -11 1 -4 -8 -15 -20 -25 -21 -19 -21 -19 -9 4 6 12 8 22 4 22
-4 0 -2 5 5 12 7 7 12 20 12 30 0 14 3 16 13 8 6 -5 25 -20 40 -31z m527 12
c-5 -10 -6 -22 -2 -27 4 -4 -3 -2 -16 6 -26 16 -30 32 -11 39 7 2 9 -1 5 -8
-4 -6 -2 -11 3 -11 6 0 11 7 11 16 0 8 5 12 10 9 7 -4 7 -12 0 -24z m-140 5
c0 -11 -19 -15 -25 -6 -3 5 1 10 9 10 9 0 16 -2 16 -4z m30 -6 c0 -5 -4 -10
-10 -10 -5 0 -10 5 -10 10 0 6 5 10 10 10 6 0 10 -4 10 -10z m40 6 c0 -11 -19
-15 -25 -6 -3 5 1 10 9 10 9 0 16 -2 16 -4z m565 -126 c3 -11 12 -17 20 -14 7
3 16 1 20 -5 3 -7 -2 -11 -14 -11 -19 0 -61 43 -61 63 0 15 28 -12 35 -33z
m40 10 c3 -5 -3 -10 -15 -10 -12 0 -18 5 -15 10 3 6 10 10 15 10 5 0 12 -4 15
-10z m440 -132 c5 4 5 1 1 -6 -6 -9 -2 -12 10 -10 29 5 23 -24 -8 -41 -25 -15
-28 -14 -42 4 -15 20 -13 35 5 35 6 0 8 -4 5 -8 -2 -4 -2 -13 2 -19 5 -8 15
-5 32 9 14 11 20 17 13 14 -15 -8 -64 14 -57 26 3 5 11 5 18 -1 7 -6 17 -7 21
-3z m-2575 -74 c0 -8 -5 -12 -10 -9 -6 4 -8 11 -5 16 9 14 15 11 15 -7z m2846
-90 c-3 -9 -6 -18 -6 -20 0 -2 -5 -4 -11 -4 -8 0 -9 4 0 13 6 8 8 17 4 20 -3
4 -1 7 6 7 8 0 11 -6 7 -16z m53 -58 c9 -11 6 -13 -14 -13 -20 0 -23 2 -14 13
6 8 13 14 14 14 1 0 8 -6 14 -14z m61 -3 c0 12 30 -19 30 -31 0 -17 -33 -23
-46 -10 -8 8 -11 23 -7 36 4 18 8 20 14 10 5 -7 9 -9 9 -5z m133 -87 c12 -9
14 -16 7 -21 -5 -3 -8 -10 -5 -15 3 -4 -1 -10 -9 -13 -19 -8 -48 26 -40 47 7
19 23 20 47 2z m-3527 -42 c-3 -9 -6 -18 -6 -21 0 -3 -7 0 -15 7 -13 11 -13
15 -3 21 21 13 31 10 24 -7z m-122 -76 c-4 -6 -10 -5 -15 3 -14 22 -10 33 6
19 8 -7 12 -17 9 -22z m3789 -37 c0 -22 4 -38 8 -35 4 2 6 21 3 41 l-4 37 56
-57 c31 -31 61 -57 67 -57 6 0 3 -6 -8 -13 -10 -8 -15 -19 -12 -24 4 -6 1 -15
-6 -21 -17 -14 -79 32 -70 53 3 8 10 15 15 15 6 0 8 -6 5 -13 -3 -8 -1 -20 5
-28 8 -11 9 -10 4 4 -3 10 2 22 13 28 16 11 16 13 -7 36 l-25 25 -17 -21 c-23
-32 -48 -19 -44 24 1 19 -2 37 -7 41 -5 3 -6 10 -3 16 12 19 27 -10 27 -51z
m-3823 -1 c0 -5 -5 -10 -11 -10 -5 0 -7 5 -4 10 3 6 8 10 11 10 2 0 4 -4 4
-10z m-80 -9 c0 -5 -16 -23 -36 -39 -31 -26 -34 -32 -25 -51 13 -24 14 -23
-16 -26 -12 -1 -20 2 -17 7 3 4 10 5 16 2 6 -4 5 3 -2 16 -10 20 -8 26 27 60
39 39 53 47 53 31z m3870 5 c0 -3 -4 -8 -10 -11 -5 -3 -10 -1 -10 4 0 6 5 11
10 11 6 0 10 -2 10 -4z m226 -130 c42 -41 57 -76 33 -76 -6 0 -8 9 -4 20 8 25
-22 39 -71 33 -34 -4 -53 12 -36 29 6 6 8 17 5 24 -11 30 31 12 73 -30z m64
-110 c0 -3 -4 -8 -10 -11 -5 -3 -10 -1 -10 4 0 6 5 11 10 11 6 0 10 -2 10 -4z
m-4490 -117 c0 -6 -7 -9 -14 -6 -11 4 -13 1 -9 -10 4 -10 2 -14 -4 -10 -5 3
-10 0 -10 -8 0 -13 4 -12 19 2 10 9 18 11 18 5 0 -18 -50 -51 -67 -45 -11 4
-14 3 -9 -6 4 -6 16 -9 25 -6 11 3 18 0 18 -8 0 -18 -33 -19 -47 -2 -8 10 -8
19 0 34 6 12 13 21 16 21 3 0 2 -4 -1 -10 -3 -5 -1 -10 4 -10 6 0 11 7 11 16
0 24 19 54 35 54 8 0 15 -5 15 -11z m-161 -248 c12 -8 12 -12 2 -25 -18 -21
-28 -20 -34 3 -7 30 6 38 32 22z m-84 -61 c-4 -6 -1 -17 5 -25 9 -11 10 -18 1
-29 -6 -7 -9 -20 -5 -29 3 -9 -4 -25 -17 -38 l-22 -22 -11 22 c-7 12 -16 18
-21 14 -5 -4 -1 3 8 17 9 14 26 42 37 63 11 20 23 37 26 37 3 0 2 -5 -1 -10z
m-55 -124 c0 -11 -19 -15 -25 -6 -3 5 1 10 9 10 9 0 16 -2 16 -4z m-160 -310
c0 -3 -4 -8 -10 -11 -5 -3 -10 -1 -10 4 0 6 5 11 10 11 6 0 10 -2 10 -4z m-19
-59 c-1 -12 -15 -9 -19 4 -3 6 1 10 8 8 6 -3 11 -8 11 -12z m12 -94 c-9 -22
-23 -15 -19 10 3 12 5 24 5 27 1 3 5 -1 10 -9 5 -8 7 -20 4 -28z m6148 -189
c17 -16 17 -17 -4 -34 l-22 -18 29 -31 c33 -34 22 -42 -14 -11 -12 11 -22 31
-22 45 0 13 -4 23 -7 21 -4 -3 -8 5 -8 17 -2 17 0 19 7 7 8 -13 10 -12 10 3 0
21 8 22 31 1z m24 -82 c-6 -7 -35 18 -35 31 0 5 9 2 20 -8 11 -10 18 -20 15
-23z m-15 -71 c0 -12 -20 -36 -20 -24 0 6 -3 19 -6 27 -5 12 -2 15 10 10 9 -3
16 -9 16 -13z m78 -503 c-2 -5 -8 -9 -13 -9 -5 0 -11 4 -13 9 -1 5 4 9 13 9 9
0 14 -4 13 -9z m12 -42 c0 -3 -4 -8 -10 -11 -5 -3 -10 -1 -10 4 0 6 5 11 10
11 6 0 10 -2 10 -4z m-6460 -55 c0 -5 -7 -12 -16 -15 -14 -5 -15 -4 -4 9 14
17 20 19 20 6z m6440 -41 c12 -7 12 -11 -3 -28 -16 -17 -16 -21 -2 -32 8 -7
15 -17 15 -23 0 -5 -9 -2 -20 8 -11 10 -19 23 -17 29 2 6 0 21 -4 34 -9 24 4
29 31 12z m10 -205 c-13 -15 -15 -15 -22 5 -11 30 1 46 20 26 13 -13 13 -17 2
-31z m-6440 -26 c0 -6 -6 -7 -12 -3 -9 5 -8 2 1 -9 8 -10 12 -20 9 -22 -10
-10 -30 25 -24 41 6 16 26 11 26 -7z m3600 -633 c322 -129 826 -332 1120 -451
294 -119 592 -239 663 -267 l127 -51 -16 -26 c-132 -207 -372 -480 -574 -652
-301 -257 -689 -470 -1063 -583 -142 -43 -206 -58 -375 -91 -192 -36 -541 -51
-764 -33 -86 8 -279 34 -308 43 -8 3 -33 7 -55 11 -50 7 -203 47 -310 81 -232
73 -502 202 -715 341 -77 51 -228 161 -256 187 -6 5 -40 35 -75 65 -136 117
-324 315 -314 330 4 6 1 9 -6 8 -15 -4 -81 80 -73 93 3 5 0 8 -8 7 -7 -2 -12
3 -10 10 1 6 -1 11 -5 11 -18 -3 -24 2 -16 14 13 21 12 36 -4 30 -12 -5 -12
-7 -1 -14 7 -5 8 -9 2 -9 -19 0 -107 141 -96 152 6 6 8 17 5 25 -3 7 -2 13 3
11 5 -1 23 5 39 14 17 9 156 66 310 128 154 62 294 118 310 125 17 7 66 27
110 44 767 305 1702 685 1709 695 7 11 14 11 35 0 14 -7 289 -118 611 -248z
m2707 -131 c6 -18 -25 -58 -38 -49 -11 6 -12 24 -1 23 26 -4 32 2 22 21 -8 14
-8 20 0 20 6 0 13 -7 17 -15z m-6491 -372 c-4 -4 -11 -1 -16 7 -16 25 -11 35
7 17 9 -9 13 -20 9 -24z m645 -276 c-1 -12 -15 -9 -19 4 -3 6 1 10 8 8 6 -3
11 -8 11 -12z m5237 -536 c-7 -12 -16 -21 -21 -21 -8 0 -2 14 16 38 16 20 20
6 5 -17z m-5181 -272 c2 -17 -1 -18 -12 -9 -8 7 -12 16 -9 21 9 16 20 10 21
-12z m33 -39 c0 -5 -5 -10 -11 -10 -5 0 -7 5 -4 10 3 6 8 10 11 10 2 0 4 -4 4
-10z m4733 -115 c-5 -13 -23 -22 -23 -11 0 15 14 35 21 31 4 -3 6 -12 2 -20z
m-4413 -155 c0 -5 -5 -10 -11 -10 -5 0 -7 5 -4 10 3 6 8 10 11 10 2 0 4 -4 4
-10z m35 -41 c11 -17 -1 -21 -15 -4 -8 9 -8 15 -2 15 6 0 14 -5 17 -11z m3535
-366 c0 -7 -5 -13 -11 -13 -6 0 -9 7 -6 15 4 8 2 17 -3 20 -6 4 -10 12 -10 18
1 16 30 -23 30 -40z m-2790 -19 c0 5 6 3 13 -3 8 -6 17 -8 20 -4 4 3 9 -1 13
-10 3 -9 13 -14 22 -11 14 5 14 3 -1 -9 -22 -18 -78 -16 -100 4 -14 13 -13 16
1 32 12 13 17 15 24 5 4 -7 8 -9 8 -4z m2590 -54 c0 -5 -5 -10 -11 -10 -5 0
-7 5 -4 10 3 6 8 10 11 10 2 0 4 -4 4 -10z m-2247 -93 c-10 -11 -13 -17 -6
-14 6 4 15 2 19 -4 5 -9 0 -10 -17 -5 -13 5 -32 8 -41 9 -9 1 -16 9 -15 19 1
21 8 23 26 6 11 -11 15 -10 24 4 6 9 15 14 20 11 4 -3 0 -14 -10 -26z m47 -17
c0 -5 -4 -10 -10 -10 -5 0 -10 5 -10 10 0 6 5 10 10 10 6 0 10 -4 10 -10z
m515 -79 c-3 -6 -11 -11 -17 -11 -6 0 -6 6 2 15 14 17 26 13 15 -4z"/>
<path d="M3104 6458 c3 -15 26 -23 26 -8 0 6 -4 9 -9 6 -5 -4 -12 -1 -14 4 -3
6 -4 5 -3 -2z"/>
<path d="M3009 6448 c-1 -7 -1 -17 -1 -23 1 -11 -68 -49 -75 -41 -3 3 8 13 25
23 23 14 28 23 21 33 -7 12 -9 12 -9 -4 0 -15 -3 -16 -15 -6 -13 11 -14 10
-10 -2 3 -8 -1 -20 -9 -27 -11 -10 -17 -8 -28 6 -7 10 -20 19 -28 21 -8 2 3
-12 25 -31 22 -19 42 -31 43 -26 3 6 9 5 17 -1 10 -8 13 -6 11 7 0 10 7 18 19
20 11 1 14 0 8 -3 -7 -3 -13 -10 -13 -16 0 -6 6 -6 15 2 11 9 19 9 28 2 10 -8
16 -6 25 9 7 11 8 19 2 19 -5 0 -10 -4 -10 -10 0 -5 -5 -10 -11 -10 -5 0 -7 4
-4 10 4 6 -1 7 -12 3 -15 -6 -16 -4 -5 9 15 19 50 18 62 -2 5 -8 10 -11 10 -7
0 15 -32 57 -44 57 -6 0 -4 -5 4 -10 8 -5 13 -10 10 -11 -3 0 -16 -2 -29 -5
-20 -4 -22 -2 -11 11 9 10 9 15 1 15 -6 0 -12 -6 -12 -12z"/>
<path d="M2910 6431 c0 -5 5 -13 10 -16 6 -3 10 -2 10 4 0 5 -4 13 -10 16 -5
3 -10 2 -10 -4z"/>
<path d="M2781 6399 c-13 -10 -19 -19 -15 -19 13 1 48 29 43 34 -2 2 -15 -4
-28 -15z"/>
<path d="M2825 6400 c6 -29 11 -34 18 -16 3 8 0 20 -8 26 -12 10 -13 8 -10
-10z"/>
<path d="M2856 6406 c3 -9 12 -16 20 -16 17 0 17 -5 3 -33 -10 -22 -10 -22 6
-2 14 17 17 18 26 5 8 -12 10 -12 7 -1 -2 8 -19 25 -36 39 -24 18 -31 20 -26
8z"/>
<path d="M3300 6410 c-9 -6 -10 -10 -3 -10 6 0 15 5 18 10 8 12 4 12 -15 0z"/>
<path d="M3108 6393 c7 -3 16 -2 19 1 4 3 -2 6 -13 5 -11 0 -14 -3 -6 -6z"/>
<path d="M2709 6380 c-1 -8 -1 -19 0 -24 1 -5 -6 -5 -16 -2 -15 6 -15 5 1 -13
18 -20 18 -21 -8 -30 -14 -6 -26 -13 -26 -15 0 -7 32 4 47 16 7 6 17 7 23 3 5
-3 10 -1 10 4 0 6 -7 11 -15 11 -17 0 -20 11 -5 26 6 6 6 15 0 24 -9 13 -10
13 -11 0z"/>
<path d="M2790 6376 c-8 -6 -21 -23 -29 -36 -10 -20 -11 -22 0 -12 16 15 33
16 23 0 -4 -7 -3 -8 5 -4 8 6 9 12 2 20 -6 7 -8 16 -4 19 9 10 25 9 19 -1 -2
-4 -1 -14 5 -22 5 -10 9 -11 9 -3 0 7 6 10 14 7 8 -3 19 3 26 15 7 14 7 21 0
21 -5 0 -10 -7 -10 -15 0 -21 -16 -19 -32 4 -11 15 -17 17 -28 7z"/>
<path d="M2607 6356 c-10 -8 -14 -16 -10 -19 5 -3 14 3 21 14 14 22 13 23 -11
5z"/>
<path d="M2736 6355 c-3 -8 -1 -15 3 -15 5 0 11 7 15 15 3 8 1 15 -3 15 -5 0
-11 -7 -15 -15z"/>
<path d="M2465 6302 c2 -3 0 -13 -6 -23 -9 -18 -2 -24 24 -20 4 0 7 -3 7 -8 0
-5 8 -8 18 -6 9 2 20 4 24 4 11 2 -46 56 -59 57 -7 0 -11 -1 -8 -4z m41 -33
c19 -22 19 -22 -2 -11 -12 6 -24 8 -28 5 -3 -3 -6 1 -6 10 0 23 13 21 36 -4z"/>
<path d="M2421 6284 c12 -15 11 -16 -8 -10 -26 8 -39 -9 -23 -29 9 -11 9 -15
1 -15 -6 0 -11 -5 -11 -11 0 -5 4 -8 9 -5 5 4 11 0 14 -6 3 -7 5 -2 4 12 -1
14 -6 28 -11 32 -6 4 -7 10 -3 14 12 13 38 -18 32 -40 -3 -12 -2 -15 1 -8 3 6
11 9 16 6 7 -4 8 -2 4 4 -4 7 -3 12 3 12 5 0 12 -6 14 -12 4 -10 6 -10 6 0 1
8 -8 16 -19 19 -11 3 -20 10 -19 17 3 23 -1 36 -12 36 -8 0 -7 -6 2 -16z"/>
<path d="M2315 6250 c-3 -5 -2 -18 4 -27 7 -13 4 -25 -12 -48 -20 -29 -20 -29
-1 -12 12 9 23 15 26 12 3 -3 3 7 1 22 -3 15 -5 36 -6 46 -1 20 -3 21 -12 7z"/>
<path d="M2065 6130 c-3 -5 -1 -18 4 -27 6 -10 11 -14 11 -9 0 6 6 1 14 -9 12
-16 17 -17 37 -7 22 11 22 12 2 7 -14 -4 -29 1 -42 14 -23 23 -28 36 -9 25 7
-4 8 -3 4 4 -9 15 -13 15 -21 2z"/>
<path d="M2005 6100 c-3 -5 -1 -10 4 -10 6 0 11 5 11 10 0 6 -2 10 -4 10 -3 0
-8 -4 -11 -10z"/>
<path d="M1996 6066 c10 -8 21 -12 24 -10 5 6 -21 24 -34 24 -6 0 -1 -6 10
-14z"/>
<path d="M2065 6059 c-4 -6 -4 -13 -1 -16 3 -4 6 -1 6 6 0 8 6 11 16 7 8 -3
12 -2 9 4 -8 13 -22 13 -30 -1z"/>
<path d="M1676 5875 c-3 -8 -1 -15 4 -15 6 0 10 7 10 15 0 8 -2 15 -4 15 -2 0
-6 -7 -10 -15z"/>
<path d="M1655 5840 c-3 -5 -2 -10 4 -10 5 0 13 5 16 10 3 6 2 10 -4 10 -5 0
-13 -4 -16 -10z"/>
<path d="M1676 5795 c-11 -8 -18 -17 -15 -19 2 -2 15 4 28 15 27 22 15 26 -13
4z"/>
<path d="M1549 5743 c-1 -5 -2 -20 -3 -34 -2 -24 0 -26 19 -17 12 5 22 15 22
22 0 14 -36 41 -38 29z m21 -29 c0 -8 -4 -12 -10 -9 -5 3 -10 10 -10 16 0 5 5
9 10 9 6 0 10 -7 10 -16z"/>
<path d="M1345 5590 c-4 -6 -4 -14 -1 -17 3 -4 6 -1 6 5 0 7 5 12 10 12 6 0
10 -6 9 -12 -3 -25 1 -38 12 -38 6 0 7 5 2 13 -4 6 -8 18 -8 26 0 18 -21 26
-30 11z"/>
<path d="M1423 5582 c-7 -4 -9 -13 -4 -21 6 -9 10 -7 14 8 3 12 4 21 4 21 -1
0 -7 -4 -14 -8z"/>
<path d="M1390 5575 c0 -5 5 -17 10 -25 5 -8 10 -10 10 -5 0 6 -5 17 -10 25
-5 8 -10 11 -10 5z"/>
<path d="M1321 5551 c-8 -5 -9 -11 -3 -15 5 -3 12 1 16 9 6 17 6 18 -13 6z"/>
<path d="M1335 5490 c3 -5 8 -10 11 -10 2 0 4 5 4 10 0 6 -5 10 -11 10 -5 0
-7 -4 -4 -10z"/>
<path d="M1229 5463 c0 -4 -2 -18 -5 -30 -5 -29 32 -52 52 -31 9 9 10 17 3 28
-8 12 -9 12 -7 -4 2 -10 -3 -21 -10 -23 -6 -3 -10 1 -9 9 2 7 2 10 0 6 -10
-17 -23 -7 -19 15 3 12 5 24 5 27 1 3 6 -2 12 -10 9 -12 10 -12 7 -1 -5 16
-28 28 -29 14z"/>
<path d="M1290 5440 c0 -5 5 -10 11 -10 5 0 7 5 4 10 -3 6 -8 10 -11 10 -2 0
-4 -4 -4 -10z"/>
<path d="M1220 5380 c0 -6 4 -9 9 -6 5 4 12 1 14 -4 3 -6 4 -5 3 2 -3 15 -26
23 -26 8z"/>
<path d="M1070 5160 c0 -11 2 -20 4 -20 2 0 6 9 9 20 3 11 1 20 -4 20 -5 0 -9
-9 -9 -20z"/>
<path d="M890 4921 c0 -5 7 -12 16 -15 24 -9 27 -7 10 9 -17 17 -26 19 -26 6z"/>
<path d="M870 4890 c-8 -5 -18 -6 -24 -3 -5 3 -6 1 -2 -5 4 -7 2 -12 -5 -12
-7 0 -9 -3 -6 -6 4 -4 17 0 30 9 21 14 24 14 33 -1 10 -15 11 -15 11 0 0 21
-19 29 -37 18z"/>
<path d="M855 4850 c-9 -15 4 -30 23 -29 15 1 15 2 0 6 -10 2 -18 9 -18 15 0
5 7 8 15 4 8 -3 15 -1 15 4 0 13 -27 13 -35 0z"/>
<path d="M822 4802 c11 -13 11 -15 -4 -9 -10 3 -20 1 -24 -5 -4 -7 -3 -8 4 -4
7 4 12 3 12 -3 0 -5 -4 -12 -10 -16 -5 -3 -7 -12 -3 -20 3 -11 1 -13 -10 -9
-8 3 -18 1 -22 -5 -3 -7 0 -8 9 -5 9 3 16 1 16 -5 0 -6 -5 -11 -12 -11 -6 0
-9 -2 -6 -5 8 -9 35 5 36 18 4 49 19 69 45 62 17 -5 19 -4 7 4 -12 9 -13 11
-1 11 23 0 4 12 -24 16 -23 2 -24 0 -13 -14z"/>
<path d="M833 4758 c0 -7 -4 -22 -7 -33 -5 -13 -2 -12 8 5 17 29 20 40 8 40
-5 0 -9 -6 -9 -12z"/>
<path d="M800 4690 c-12 -7 -12 -11 -2 -20 6 -5 10 -7 7 -4 -3 4 0 13 6 21 13
15 10 16 -11 3z"/>
<path d="M760 4680 c0 -5 5 -10 10 -10 6 0 10 5 10 10 0 6 -4 10 -10 10 -5 0
-10 -4 -10 -10z"/>
<path d="M782 4646 c7 -8 15 -12 17 -11 5 6 -10 25 -20 25 -5 0 -4 -6 3 -14z"/>
<path d="M700 4458 c0 -4 4 -8 9 -8 6 0 12 4 15 8 3 5 -1 9 -9 9 -8 0 -15 -4
-15 -9z"/>
<path d="M653 4353 c16 -8 31 -12 35 -9 3 3 -1 6 -9 6 -11 0 -11 2 -1 9 9 5 2
8 -20 9 l-33 1 28 -16z"/>
<path d="M620 4340 c0 -6 9 -10 21 -10 11 0 18 -4 15 -8 -2 -4 -1 -14 3 -20 6
-10 11 -9 21 3 11 13 10 14 -4 9 -11 -4 -16 -2 -14 6 2 6 -7 16 -19 21 -14 5
-23 5 -23 -1z"/>
<path d="M630 4290 c0 -5 5 -10 10 -10 6 0 10 5 10 10 0 6 -4 10 -10 10 -5 0
-10 -4 -10 -10z"/>
<path d="M623 4251 c-10 -16 -9 -20 3 -25 21 -8 24 -8 24 5 0 5 -4 7 -10 4 -5
-3 -10 -2 -10 3 0 17 13 22 29 9 14 -11 14 -10 2 6 -17 22 -23 21 -38 -2z"/>
<path d="M589 4203 c-11 -15 -11 -16 1 -5 16 14 34 16 26 3 -3 -5 1 -12 10
-15 24 -9 25 -8 7 14 -21 24 -27 25 -44 3z"/>
<path d="M610 4125 c0 -18 -11 -19 -30 -2 -11 9 -11 8 0 -7 13 -17 13 -19 0
-14 -10 4 -16 0 -16 -11 0 -10 9 -18 20 -19 10 0 23 -7 29 -14 6 -10 7 -9 4 4
-3 9 -1 19 6 22 7 3 -1 3 -18 0 -29 -5 -29 -5 -11 10 11 9 23 16 26 16 4 0 7
7 7 15 0 8 -4 15 -9 15 -4 0 -8 -7 -8 -15z"/>
<path d="M569 4053 c-1 -5 -1 -11 0 -15 0 -5 -4 -8 -10 -8 -5 0 -7 -5 -3 -11
4 -8 9 -7 15 2 4 7 5 17 3 21 -6 10 10 11 19 1 4 -3 2 -12 -5 -20 -6 -7 -8
-16 -4 -20 3 -3 6 -1 6 6 0 7 4 10 9 7 11 -7 9 13 -2 32 -9 13 -26 16 -28 5z"/>
<path d="M546 3992 c-3 -5 1 -9 9 -9 8 0 15 4 15 9 0 4 -4 8 -9 8 -6 0 -12 -4
-15 -8z"/>
<path d="M583 3977 c4 -11 0 -20 -12 -27 -13 -6 -18 -20 -18 -44 1 -19 5 -32
10 -29 5 3 7 0 5 -8 -3 -8 -12 -13 -21 -11 -8 1 -18 -2 -22 -8 -4 -6 1 -7 12
-3 16 6 16 5 4 -10 -7 -9 -9 -17 -5 -17 9 0 27 24 51 69 12 21 11 22 -2 11
-26 -21 -29 -2 -4 20 23 20 23 21 2 10 -31 -14 -29 1 1 20 22 14 23 16 8 30
-14 13 -15 12 -9 -3z"/>
<path d="M567 3809 c4 -13 8 -18 11 -10 2 7 -1 18 -6 23 -8 8 -9 4 -5 -13z"/>
<path d="M530 3800 c18 -12 30 -13 30 -2 0 4 -10 9 -22 9 -18 2 -20 0 -8 -7z"/>
<path d="M566 3767 c3 -10 9 -15 12 -12 3 3 0 11 -7 18 -10 9 -11 8 -5 -6z"/>
<path d="M540 3578 c0 -4 4 -8 9 -8 6 0 12 4 15 8 3 5 -1 9 -9 9 -8 0 -15 -4
-15 -9z"/>
<path d="M553 3493 c-15 -5 -17 -23 -4 -23 5 0 11 7 15 15 3 8 4 15 3 14 -1 0
-8 -3 -14 -6z"/>
<path d="M542 3240 c-14 -11 -18 -21 -12 -25 8 -5 8 -11 1 -19 -12 -15 -6 -59
9 -64 7 -3 7 -9 -1 -18 -7 -8 -7 -14 -1 -14 5 0 13 7 16 16 5 12 10 14 19 5
10 -8 14 -7 14 4 0 8 -4 12 -9 9 -8 -5 -12 9 -9 33 1 6 -3 14 -9 18 -7 4 -9
-4 -5 -26 5 -27 4 -30 -8 -20 -22 17 -15 54 13 69 24 13 24 13 2 9 -15 -4 -22
-1 -19 6 2 7 11 11 20 11 9 -1 13 4 10 12 -6 17 -3 17 -31 -6z"/>
<path d="M610 2928 c0 -9 -6 -18 -12 -21 -7 -2 -11 -7 -8 -10 3 -3 13 0 22 7
11 8 14 17 7 27 -7 12 -9 11 -9 -3z"/>
<path d="M579 2837 c6 -15 16 -21 31 -19 19 2 21 0 10 -13 -15 -18 -4 -20 15
-2 11 11 10 16 -6 25 -12 8 -19 8 -19 2 0 -5 -5 -10 -11 -10 -6 0 -9 6 -6 14
3 8 0 17 -8 20 -11 4 -12 0 -6 -17z"/>
<path d="M590 2793 c0 -6 5 -15 11 -18 6 -4 8 -13 5 -21 -3 -8 0 -11 8 -8 8 3
23 -8 36 -26 l22 -31 -34 6 c-23 4 -29 2 -18 -4 8 -5 18 -7 23 -4 5 3 7 0 5
-8 -3 -8 -11 -13 -17 -11 -6 1 -11 -2 -11 -8 0 -17 21 -11 40 13 13 16 15 26
8 35 -6 6 -7 12 -2 12 5 0 -2 7 -14 16 -12 8 -22 20 -22 26 0 7 6 6 15 -2 10
-9 15 -9 15 -1 0 6 -6 12 -12 12 -7 1 -19 2 -26 3 -7 0 -17 8 -22 16 -6 9 -10
10 -10 3z"/>
<path d="M615 2720 c3 -5 11 -10 16 -10 6 0 7 5 4 10 -3 6 -11 10 -16 10 -6 0
-7 -4 -4 -10z"/>
<path d="M635 2630 c3 -5 8 -10 11 -10 2 0 4 5 4 10 0 6 -5 10 -11 10 -5 0 -7
-4 -4 -10z"/>
<path d="M670 2506 c0 -2 7 -9 15 -16 13 -11 14 -10 9 4 -5 14 -24 23 -24 12z"/>
<path d="M743 2373 c-16 -6 -17 -33 -2 -33 5 0 7 -5 3 -12 -5 -7 -3 -8 5 -4 8
5 11 3 10 -5 -4 -22 10 -57 26 -63 8 -3 12 -11 9 -19 -3 -8 6 -21 20 -31 17
-10 23 -22 19 -32 -5 -14 -2 -13 15 2 23 19 29 30 12 19 -12 -8 -40 12 -40 28
0 7 4 7 12 -1 15 -15 28 -16 28 -2 0 6 -3 9 -7 9 -21 -3 -24 3 -12 19 13 15
12 16 -3 3 -15 -11 -21 -9 -48 17 -17 17 -28 37 -25 45 3 7 -1 20 -9 27 -16
13 -13 30 6 30 6 0 8 -3 5 -7 -4 -3 -1 -13 6 -21 6 -8 12 -25 12 -36 0 -12 6
-21 14 -21 21 0 24 20 6 39 -9 9 -14 20 -10 26 4 6 -1 7 -12 3 -15 -6 -16 -4
-6 8 10 12 9 15 -5 16 -9 0 -23 -2 -29 -4z m67 -73 c0 -5 -4 -10 -10 -10 -5 0
-10 5 -10 10 0 6 5 10 10 10 6 0 10 -4 10 -10z m10 -64 c0 -3 -4 -8 -10 -11
-5 -3 -10 -1 -10 4 0 6 5 11 10 11 6 0 10 -2 10 -4z"/>
<path d="M815 2270 c-3 -5 -1 -10 4 -10 6 0 11 5 11 10 0 6 -2 10 -4 10 -3 0
-8 -4 -11 -10z"/>
<path d="M806 2187 c3 -10 9 -15 12 -12 3 3 0 11 -7 18 -10 9 -11 8 -5 -6z"/>
<path d="M870 2170 c0 -5 5 -10 11 -10 5 0 7 5 4 10 -3 6 -8 10 -11 10 -2 0
-4 -4 -4 -10z"/>
<path d="M3865 6443 c-9 -13 -11 -23 -5 -23 5 0 10 5 10 11 0 5 4 7 10 4 6 -4
7 1 3 12 -6 16 -5 17 11 3 17 -13 17 -15 -4 -32 -13 -10 -20 -21 -16 -25 3 -3
6 -3 6 2 0 4 8 1 18 -6 15 -13 16 -12 3 4 -18 23 0 22 32 -3 25 -20 26 -20 35
-3 11 21 5 46 -9 37 -8 -5 -13 9 -10 29 1 8 -2 9 -42 11 -19 1 -32 -5 -42 -21z
m65 7 c0 -5 -1 -13 -2 -16 -2 -3 7 -11 19 -17 16 -9 20 -16 13 -27 -8 -12 -10
-12 -16 3 -3 9 -12 17 -19 17 -7 0 -12 11 -12 25 0 14 3 25 8 25 5 0 9 -4 9
-10z"/>
<path d="M4024 6436 c7 -19 -11 -49 -24 -41 -4 3 -10 -1 -13 -8 -3 -8 2 -13
12 -12 25 2 42 15 35 27 -5 7 -1 9 9 5 22 -8 21 -5 -5 24 -16 19 -20 20 -14 5z"/>
<path d="M4060 6433 c8 -12 17 -20 21 -17 11 7 25 -19 23 -44 -1 -12 1 -20 4
-17 3 2 10 1 16 -4 7 -6 11 -1 12 17 1 15 -1 21 -3 15 -8 -22 -20 -14 -20 12
0 25 11 34 20 15 3 -6 4 -5 3 2 -2 7 -13 12 -25 11 -15 -2 -20 1 -15 9 4 7 3
8 -5 4 -6 -4 -19 -2 -28 6 -15 12 -15 11 -3 -9z"/>
<path d="M3666 6425 c-11 -8 -15 -15 -9 -15 6 0 16 7 23 15 16 19 11 19 -14 0z"/>
<path d="M4150 6422 c0 -7 5 -12 10 -12 6 0 10 -5 10 -11 0 -5 -4 -7 -10 -4
-5 3 -10 1 -10 -4 0 -13 10 -14 28 -3 9 7 8 13 -8 27 -11 10 -20 13 -20 7z"/>
<path d="M3827 6407 c-3 -7 3 -13 14 -13 22 0 25 12 5 19 -8 3 -16 0 -19 -6z"/>
<path d="M4070 6390 c0 -5 5 -10 10 -10 6 0 10 5 10 10 0 6 -4 10 -10 10 -5 0
-10 -4 -10 -10z"/>
<path d="M4040 6375 c-11 -13 -10 -14 4 -9 9 3 16 10 16 15 0 13 -6 11 -20 -6z"/>
<path d="M4150 6361 c0 -10 19 -25 25 -20 1 2 -3 10 -11 17 -8 7 -14 8 -14 3z"/>
<path d="M4255 6320 c3 -5 8 -10 11 -10 2 0 4 5 4 10 0 6 -5 10 -11 10 -5 0
-7 -4 -4 -10z"/>
<path d="M4513 6273 c-1 -32 3 -43 12 -39 7 2 17 0 23 -6 8 -8 18 -6 36 6 27
17 35 9 14 -12 -6 -6 -9 -14 -6 -18 13 -12 29 36 19 55 -6 10 -8 21 -6 25 3 3
2 4 -2 1 -3 -3 -12 0 -19 6 -8 7 -14 6 -20 -2 -4 -7 -3 -9 4 -5 12 7 35 -27
25 -38 -13 -12 -22 -6 -17 12 5 14 4 15 -5 2 -6 -8 -11 -11 -11 -7 0 4 -9 3
-20 -3 -24 -13 -27 -2 -3 15 15 11 14 14 -4 32 -19 19 -20 19 -20 -24z m22 7
c3 -5 1 -10 -4 -10 -6 0 -11 5 -11 10 0 6 2 10 4 10 3 0 8 -4 11 -10z m30 -40
c3 -5 1 -10 -4 -10 -6 0 -11 5 -11 10 0 6 2 10 4 10 3 0 8 -4 11 -10z"/>
<path d="M4405 6280 c3 -5 8 -10 11 -10 2 0 4 5 4 10 0 6 -5 10 -11 10 -5 0
-7 -4 -4 -10z"/>
<path d="M4466 6264 c-5 -14 -4 -15 8 -5 10 8 16 9 19 1 3 -6 4 -5 3 2 -4 19
-23 20 -30 2z"/>
<path d="M4626 6214 c-4 -9 -4 -19 -1 -22 3 -3 5 0 5 6 0 7 4 12 10 12 5 0 7
-8 4 -17 -5 -14 -4 -15 4 -4 11 15 5 41 -8 41 -4 0 -11 -7 -14 -16z"/>
<path d="M4790 6131 c0 -6 4 -13 10 -16 6 -3 7 1 4 9 -7 18 -14 21 -14 7z"/>
<path d="M4947 6055 c-16 -11 -16 -13 -2 -19 10 -4 14 -2 9 5 -4 7 -1 10 7 7
8 -3 13 -11 12 -17 -3 -10 4 -13 23 -10 4 0 10 -5 14 -11 5 -9 9 -9 14 -1 6
10 0 13 -20 10 -4 0 -14 11 -23 24 -14 22 -19 23 -34 12z"/>
<path d="M5030 5991 c0 -6 4 -13 10 -16 6 -3 7 1 4 9 -7 18 -14 21 -14 7z"/>
<path d="M5216 5947 c3 -10 9 -15 12 -12 3 3 0 11 -7 18 -10 9 -11 8 -5 -6z"/>
<path d="M5190 5895 c-11 -13 -10 -14 4 -9 9 3 16 10 16 15 0 13 -6 11 -20 -6z"/>
<path d="M5576 5565 c4 -8 8 -15 10 -15 2 0 4 7 4 15 0 8 -4 15 -10 15 -5 0
-7 -7 -4 -15z"/>
<path d="M5685 5477 l-30 -30 32 22 c38 26 56 27 26 2 -13 -11 -18 -23 -13
-30 5 -9 9 -6 13 9 6 22 6 22 30 3 23 -16 28 -41 6 -28 -5 4 -9 3 -10 -2 0 -4
-2 -19 -4 -33 -2 -14 -1 -19 1 -13 3 7 4 15 2 18 -2 2 7 12 20 21 18 12 26 13
37 4 20 -17 19 -27 -5 -35 -18 -6 -18 -9 -6 -28 8 -12 12 -30 11 -39 -2 -10 1
-20 5 -23 5 -3 7 4 5 15 -3 14 0 20 8 17 7 -2 11 -13 9 -23 -2 -14 -1 -16 6
-6 5 8 12 13 16 12 27 -6 26 11 -2 35 -20 17 -31 34 -28 42 6 14 -26 65 -38
64 -22 -2 -27 1 -23 13 4 11 1 13 -10 9 -10 -4 -14 -2 -10 4 4 6 1 15 -6 20
-8 6 -22 0 -42 -20z m165 -161 c-1 -6 -10 0 -20 13 -11 13 -20 19 -20 15 0
-12 -20 18 -20 30 0 6 14 -3 30 -19 17 -16 30 -34 30 -39z"/>
<path d="M5720 5438 c0 -9 -6 -19 -12 -21 -10 -4 -10 -6 0 -6 14 -1 28 26 18
36 -3 4 -6 -1 -6 -9z"/>
<path d="M5765 5400 c-3 -5 -2 -10 4 -10 5 0 13 5 16 10 3 6 2 10 -4 10 -5 0
-13 -4 -16 -10z"/>
<path d="M5750 5374 c0 -5 7 -18 15 -28 8 -11 15 -16 15 -10 0 5 -7 18 -15 28
-8 11 -15 16 -15 10z"/>
<path d="M5862 5293 c-6 -3 -9 -9 -6 -15 3 -5 -1 -8 -9 -6 -9 2 -16 -1 -16 -7
-1 -5 5 -10 12 -10 6 0 11 -8 11 -17 -1 -10 3 -16 10 -15 6 1 10 -4 8 -11 -1
-8 2 -11 9 -6 9 5 10 2 6 -9 -4 -11 -2 -14 9 -10 7 3 14 9 14 15 0 5 4 7 8 4
5 -3 9 10 9 28 0 26 -7 37 -26 49 -14 8 -32 12 -39 10z m53 -43 c7 -21 0 -40
-15 -40 -16 0 -41 46 -34 63 8 21 40 6 49 -23z"/>
<path d="M5877 5264 c-3 -4 1 -13 9 -21 19 -20 26 -13 10 9 -7 10 -16 15 -19
12z"/>
<path d="M5940 5220 c0 -5 5 -10 11 -10 5 0 7 5 4 10 -3 6 -8 10 -11 10 -2 0
-4 -4 -4 -10z"/>
<path d="M5919 5179 l-24 -20 28 17 c15 9 27 18 27 20 0 8 -8 4 -31 -17z"/>
<path d="M5964 5192 c3 -6 -2 -13 -13 -17 -11 -3 -25 -13 -33 -22 -12 -15 -11
-15 9 -5 19 10 24 9 37 -10 9 -12 16 -18 16 -14 0 5 -7 18 -17 28 -9 10 -11
18 -5 18 6 0 17 -9 25 -20 8 -11 17 -17 20 -13 4 3 -2 13 -13 20 -11 8 -18 18
-15 23 3 5 0 12 -6 16 -7 4 -9 3 -5 -4z"/>
<path d="M5938 5133 c6 -2 12 -9 12 -14 0 -6 -5 -7 -12 -3 -7 5 -8 3 -3 -5 5
-9 11 -9 17 -3 12 12 2 32 -15 31 -9 0 -9 -2 1 -6z"/>
<path d="M5990 5108 c0 -6 3 -8 7 -5 3 4 12 2 20 -5 12 -9 9 -15 -14 -36 l-28
-24 33 22 c37 25 37 24 16 44 -18 19 -34 21 -34 4z"/>
<path d="M5962 5094 c-7 -8 -8 -14 -3 -14 10 0 25 19 20 25 -2 1 -10 -3 -17
-11z"/>
<path d="M5976 5075 c-11 -8 -16 -15 -10 -15 5 0 18 7 28 15 11 8 16 15 10 15
-5 0 -18 -7 -28 -15z"/>
<path d="M6062 4910 c7 -11 16 -20 21 -20 4 0 6 4 3 9 -4 5 -3 11 1 14 5 2 2
2 -4 1 -7 -2 -13 1 -13 6 0 6 -5 10 -10 10 -6 0 -5 -8 2 -20z"/>
<path d="M6097 4887 c-7 -19 8 -41 22 -33 6 4 10 15 10 24 -1 15 -2 15 -6 -1
-2 -9 -8 -15 -13 -12 -5 3 -7 12 -3 20 3 8 3 15 0 15 -3 0 -7 -6 -10 -13z"/>
<path d="M6146 4836 c10 -8 21 -12 24 -10 5 6 -21 24 -34 24 -6 0 -1 -6 10
-14z"/>
<path d="M6115 4821 c-4 -7 0 -8 11 -4 12 4 15 3 10 -5 -4 -7 -1 -15 8 -18 9
-3 13 -10 10 -15 -3 -5 2 -6 12 -2 14 5 13 8 -7 19 -13 7 -23 16 -21 20 5 13
-15 17 -23 5z"/>
<path d="M6170 4806 c0 -2 7 -7 16 -10 8 -3 12 -2 9 4 -6 10 -25 14 -25 6z"/>
<path d="M6180 4760 c8 -5 20 -10 25 -10 6 0 3 5 -5 10 -8 5 -19 10 -25 10 -5
0 -3 -5 5 -10z"/>
<path d="M6155 4741 c-3 -5 -2 -12 3 -15 5 -3 9 1 9 9 0 17 -3 19 -12 6z"/>
<path d="M6215 4719 c-6 -8 -4 -10 5 -4 10 6 12 4 6 -11 -6 -15 -5 -17 5 -6 9
9 10 15 2 23 -8 8 -13 7 -18 -2z"/>
<path d="M6195 4689 c-4 -6 -5 -12 -2 -15 2 -3 7 2 10 11 7 17 1 20 -8 4z"/>
<path d="M6226 4622 c-2 -4 4 -8 14 -8 10 0 16 4 14 8 -3 4 -9 8 -14 8 -5 0
-11 -4 -14 -8z"/>
<path d="M6273 4605 c0 -8 4 -12 9 -9 5 3 6 10 3 15 -9 13 -12 11 -12 -6z"/>
<path d="M5150 5981 c0 -5 5 -13 10 -16 6 -3 10 -2 10 4 0 5 -4 13 -10 16 -5
3 -10 2 -10 -4z"/>
<path d="M5262 5911 c-10 -6 -10 -10 3 -21 13 -11 14 -10 9 5 -6 14 -4 16 6
10 9 -5 11 -4 6 3 -8 14 -7 14 -24 3z"/>
<path d="M5450 5759 c0 -5 5 -7 10 -4 6 3 10 8 10 11 0 2 -4 4 -10 4 -5 0 -10
-5 -10 -11z"/>
<path d="M5519 5688 c-6 -11 -5 -48 1 -48 4 0 8 11 8 25 0 21 -5 32 -9 23z"/>
<path d="M5570 5656 c0 -2 7 -7 16 -10 8 -3 12 -2 9 4 -6 10 -25 14 -25 6z"/>
<path d="M5561 5631 c-8 -5 -9 -11 -3 -15 5 -3 12 1 16 9 6 17 6 18 -13 6z"/>
<path d="M5590 5620 c0 -5 5 -10 10 -10 6 0 10 5 10 10 0 6 -4 10 -10 10 -5 0
-10 -4 -10 -10z"/>
<path d="M936 5038 c3 -5 10 -6 15 -3 13 9 11 12 -6 12 -8 0 -12 -4 -9 -9z"/>
<path d="M911 5012 c-16 -31 10 -48 28 -19 11 18 11 20 0 10 -19 -18 -34 -16
-19 2 7 9 10 18 7 21 -3 3 -10 -3 -16 -14z"/>
<path d="M6860 4300 c0 -5 5 -10 11 -10 5 0 7 5 4 10 -3 6 -8 10 -11 10 -2 0
-4 -4 -4 -10z"/>
<path d="M1036 1876 c5 -13 4 -17 -4 -12 -15 9 -26 -14 -13 -27 9 -9 10 -7 5
7 -5 13 -4 17 4 12 15 -9 26 14 13 27 -9 9 -10 7 -5 -7z"/>
<path d="M1050 1842 c0 -5 7 -9 15 -9 8 0 12 4 9 9 -3 4 -9 8 -15 8 -5 0 -9
-4 -9 -8z"/>
<path d="M1035 1810 c3 -5 8 -10 11 -10 2 0 4 5 4 10 0 6 -5 10 -11 10 -5 0
-7 -4 -4 -10z"/>
<path d="M1074 1799 c-3 -6 -1 -16 5 -22 9 -9 10 -7 5 8 -7 18 -6 19 9 6 15
-12 17 -12 11 3 -7 18 -20 21 -30 5z"/>
<path d="M1110 1765 c0 -5 5 -17 10 -25 5 -8 10 -10 10 -5 0 6 -5 17 -10 25
-5 8 -10 11 -10 5z"/>
<path d="M1150 1685 c0 -7 30 -13 34 -7 3 4 -4 9 -15 9 -10 1 -19 0 -19 -2z"/>
<path d="M1175 1649 c-4 -6 -5 -12 -2 -15 2 -3 7 2 10 11 7 17 1 20 -8 4z"/>
<path d="M1230 1576 c0 -2 8 -10 18 -17 15 -13 16 -12 3 4 -13 16 -21 21 -21
13z"/>
<path d="M1275 1540 c3 -5 8 -10 11 -10 2 0 4 5 4 10 0 6 -5 10 -11 10 -5 0
-7 -4 -4 -10z"/>
<path d="M2183 309 c-2 -23 3 -25 10 -4 4 8 3 16 -1 19 -4 3 -9 -4 -9 -15z"/>
<path d="M2155 310 c3 -5 8 -10 11 -10 2 0 4 5 4 10 0 6 -5 10 -11 10 -5 0 -7
-4 -4 -10z"/>
<path d="M6386 5378 c3 -5 10 -6 15 -3 13 9 11 12 -6 12 -8 0 -12 -4 -9 -9z"/>
<path d="M6560 5116 c0 -2 7 -7 16 -10 8 -3 12 -2 9 4 -6 10 -25 14 -25 6z"/>
<path d="M6548 5099 c6 -9 10 -18 7 -20 -2 -3 6 -5 20 -5 13 0 21 4 18 9 -3 4
-8 6 -11 3 -3 -3 -15 2 -26 11 -15 14 -18 14 -8 2z"/>
<path d="M6576 5046 c5 -13 29 -16 36 -5 2 2 1 3 -1 2 -2 -1 -12 2 -22 8 -14
7 -17 6 -13 -5z"/>
<path d="M6627 5019 c6 -6 10 -17 9 -23 -2 -6 -1 -8 1 -3 3 4 10 4 16 0 7 -3
3 3 -7 15 -11 12 -22 22 -25 22 -3 0 0 -5 6 -11z"/>
<path d="M6626 4937 c3 -10 9 -15 12 -12 3 3 0 11 -7 18 -10 9 -11 8 -5 -6z"/>
<path d="M6673 4945 c4 -5 0 -16 -9 -26 -12 -13 -12 -19 -3 -25 8 -4 10 -3 5
4 -4 7 -3 12 2 12 15 0 22 29 9 36 -7 4 -9 3 -4 -1z"/>
<path d="M6670 4880 c-11 -7 -11 -10 -2 -10 7 0 10 -4 7 -10 -3 -6 1 -7 10 -4
10 4 15 2 13 -7 -2 -7 6 -14 17 -16 16 -2 16 -1 4 5 -9 4 -15 15 -14 24 2 11
-2 15 -13 11 -10 -4 -13 -2 -8 5 9 14 6 15 -14 2z"/>
<path d="M6675 4820 c3 -5 8 -10 11 -10 2 0 4 5 4 10 0 6 -5 10 -11 10 -5 0
-7 -4 -4 -10z"/>
<path d="M6716 4785 c-11 -8 -16 -15 -10 -15 5 0 18 7 28 15 11 8 16 15 10 15
-5 0 -18 -7 -28 -15z"/>
<path d="M6730 4761 c0 -5 7 -11 14 -14 10 -4 13 -1 9 9 -6 15 -23 19 -23 5z"/>
<path d="M6742 4672 c2 -8 7 -13 12 -12 5 1 13 -4 18 -12 8 -11 9 -11 6 0 -2
8 -7 13 -12 12 -5 -1 -13 4 -18 12 -8 11 -9 11 -6 0z"/>
<path d="M6792 4623 c0 -10 -3 -27 -7 -38 -5 -14 -4 -16 3 -6 7 9 12 10 16 2
4 -6 13 -11 19 -11 7 0 4 6 -5 14 -10 7 -16 22 -13 34 2 12 0 22 -5 22 -5 0
-8 -8 -8 -17z"/>
<path d="M6763 4615 c-7 -8 -9 -16 -4 -19 5 -3 12 1 15 10 8 22 4 25 -11 9z"/>
<path d="M6856 4411 c-4 -5 -3 -16 0 -25 5 -12 2 -15 -10 -10 -9 3 -13 11 -9
17 4 6 1 7 -7 2 -10 -6 -9 -11 4 -21 13 -9 14 -13 4 -16 -7 -3 2 -5 20 -6 17
0 32 3 32 8 0 5 -8 6 -17 3 -15 -6 -16 -4 -5 9 10 13 10 17 0 21 -10 4 -10 8
2 16 9 7 10 11 3 11 -6 0 -14 -4 -17 -9z"/>
<path d="M6914 4153 c-4 -10 -8 -30 -9 -45 -1 -22 2 -25 17 -17 9 5 16 18 15
28 0 11 -5 18 -9 15 -4 -3 -4 -12 -1 -22 5 -14 4 -15 -8 -4 -11 10 -11 16 -1
33 8 12 11 23 9 25 -3 3 -8 -3 -13 -13z"/>
<path d="M6940 4081 c0 -7 -4 -9 -10 -6 -6 4 -7 -1 -3 -12 6 -16 5 -16 -10 -4
-11 9 -17 10 -17 2 0 -6 4 -11 9 -11 5 0 8 -11 5 -25 -4 -24 -4 -25 14 -8 10
10 14 19 10 21 -4 2 -3 13 3 24 6 11 8 22 5 26 -3 3 -6 0 -6 -7z"/>
<path d="M6924 3932 c-8 -6 -10 -22 -4 -47 1 -5 2 -13 1 -17 0 -4 5 -5 13 -2
8 3 17 1 21 -5 8 -14 25 -14 25 0 0 5 -4 8 -9 4 -5 -3 -12 -1 -16 5 -3 5 -1
10 4 10 6 0 11 5 11 11 0 5 -4 8 -9 5 -5 -4 -11 -3 -14 1 -2 5 -2 2 0 -5 1 -8
-3 -12 -9 -9 -7 2 -11 13 -10 23 5 26 9 29 25 16 10 -9 14 -9 14 1 0 14 -28
20 -43 9z"/>
<path d="M6941 3833 c12 -14 12 -16 -1 -11 -11 4 -16 0 -16 -13 0 -24 12 -25
20 -2 6 15 8 15 16 3 12 -18 13 -33 2 -26 -4 2 -14 1 -21 -3 -9 -6 -5 -14 18
-30 17 -12 31 -18 31 -12 0 5 -9 13 -20 16 -22 7 -28 27 -7 23 7 -2 12 8 11
27 0 17 -6 29 -12 28 -7 -2 -12 2 -12 7 0 6 -5 10 -11 10 -8 0 -7 -6 2 -17z"/>
<path d="M6975 3570 c3 -5 8 -10 11 -10 2 0 4 5 4 10 0 6 -5 10 -11 10 -5 0
-7 -4 -4 -10z"/>
<path d="M6927 3229 c7 -7 15 -10 18 -7 3 3 -2 9 -12 12 -14 6 -15 5 -6 -5z"/>
<path d="M6936 3171 c-4 -5 -3 -17 1 -27 5 -13 3 -15 -8 -9 -8 4 -11 5 -7 0 4
-4 2 -15 -5 -24 -10 -14 -10 -14 4 -4 12 10 20 9 40 -3 l24 -16 -22 20 -23 20
22 14 c12 8 18 19 14 26 -9 14 -32 16 -40 3z m34 -11 c0 -5 -7 -10 -15 -10 -8
0 -15 5 -15 10 0 6 7 10 15 10 8 0 15 -4 15 -10z"/>
<path d="M6925 3090 c-3 -5 -3 -10 1 -10 4 0 -1 -10 -12 -22 -13 -16 -14 -19
-2 -10 10 8 19 9 22 3 4 -5 -3 -12 -14 -16 -11 -3 -20 -11 -20 -16 0 -6 10 -3
21 5 12 8 26 13 33 12 6 -2 8 -1 4 1 -5 3 -8 9 -8 14 0 6 4 8 9 5 11 -7 9 13
-2 32 -10 15 -24 16 -32 2z m27 -15 c0 -5 -5 -11 -10 -13 -5 -1 -9 4 -9 13 0
9 4 14 9 13 5 -2 10 -8 10 -13z"/>
<path d="M55 3020 c3 -5 8 -10 11 -10 2 0 4 5 4 10 0 6 -5 10 -11 10 -5 0 -7
-4 -4 -10z"/>
<path d="M6915 3004 c-12 -10 -14 -14 -5 -11 8 2 22 0 32 -4 12 -7 16 -5 14 8
-4 23 -17 25 -41 7z"/>
<path d="M6906 2969 c2 -4 12 -5 22 -2 15 6 15 5 3 -10 -10 -13 -17 -15 -27
-6 -10 8 -14 8 -14 0 0 -6 5 -11 11 -11 5 0 7 -5 3 -12 -4 -6 5 -3 19 8 30 22
30 39 -1 40 -12 1 -19 -2 -16 -7z"/>
<path d="M6908 2793 c0 -5 -2 -12 -3 -18 -2 -5 -3 -16 -4 -23 0 -7 -5 -11 -10
-7 -5 3 -12 1 -16 -5 -4 -6 -11 -8 -17 -4 -5 3 -2 -8 6 -25 17 -32 12 -42 -8
-15 -10 13 -12 13 -12 -4 0 -13 8 -18 28 -18 19 0 25 3 18 10 -15 15 -12 30 3
18 11 -9 14 -6 15 16 0 15 3 39 5 55 4 23 0 40 -5 20z m-8 -72 c0 -4 -7 -8
-15 -8 -16 0 -20 9 -9 20 8 8 24 -1 24 -12z"/>
<path d="M109 2778 c11 -15 11 -21 0 -35 -12 -17 -12 -17 6 0 19 17 19 17 0
35 -18 16 -18 16 -6 0z"/>
<path d="M6850 2760 c0 -5 5 -10 10 -10 6 0 10 5 10 10 0 6 -4 10 -10 10 -5 0
-10 -4 -10 -10z"/>
<path d="M126 2721 c-3 -5 1 -11 9 -14 9 -4 12 -1 8 9 -6 16 -10 17 -17 5z"/>
<path d="M136 2682 c-3 -5 1 -9 9 -9 8 0 12 4 9 9 -3 4 -7 8 -9 8 -2 0 -6 -4
-9 -8z"/>
<path d="M6843 2654 c-7 -3 -9 -12 -6 -21 4 -11 2 -14 -5 -9 -7 4 -12 2 -12
-3 0 -6 5 -11 12 -11 6 0 8 -3 5 -7 -8 -7 11 -33 25 -33 5 0 7 4 3 9 -3 5 -1
12 5 16 6 4 7 11 4 17 -4 6 0 15 7 20 12 8 11 9 -1 5 -8 -2 -15 -12 -15 -22 0
-10 -5 -20 -12 -22 -16 -6 -6 49 10 59 13 8 -1 9 -20 2z"/>
<path d="M148 2623 c6 -3 10 -9 6 -14 -3 -5 -1 -9 4 -9 21 0 19 26 -2 27 -11
0 -15 -1 -8 -4z"/>
<path d="M135 2580 c-3 -5 -1 -10 4 -10 6 0 11 5 11 10 0 6 -2 10 -4 10 -3 0
-8 -4 -11 -10z"/>
<path d="M165 2580 c-3 -6 1 -7 9 -4 18 7 21 14 7 14 -6 0 -13 -4 -16 -10z"/>
<path d="M174 2552 c5 -8 -1 -12 -16 -13 -18 -1 -19 -2 -4 -6 23 -6 43 12 25
22 -8 5 -10 4 -5 -3z"/>
<path d="M155 2490 c3 -5 8 -10 11 -10 2 0 4 5 4 10 0 6 -5 10 -11 10 -5 0 -7
-4 -4 -10z"/>
<path d="M190 2485 c0 -8 4 -15 10 -15 5 0 7 7 4 15 -4 8 -8 15 -10 15 -2 0
-4 -7 -4 -15z"/>
<path d="M173 2450 c1 -11 5 -20 9 -20 11 0 10 28 -1 35 -6 3 -9 -4 -8 -15z"/>
<path d="M215 2460 c-6 -9 11 -50 21 -50 2 0 1 8 -4 18 -5 9 -7 23 -5 30 5 14
-3 16 -12 2z"/>
<path d="M191 2421 c-11 -7 -9 -10 8 -16 12 -3 19 -11 16 -16 -4 -5 -1 -9 4
-9 16 0 13 20 -4 26 -8 4 -12 10 -9 15 7 11 3 11 -15 0z"/>
<path d="M6764 2368 c10 -16 23 -28 30 -28 6 0 4 5 -4 10 -14 9 -7 14 13 11 5
-1 6 3 2 9 -3 6 -11 8 -16 4 -5 -3 -17 0 -26 8 -14 11 -13 8 1 -14z"/>
<path d="M201 2351 c0 -9 3 -11 5 -4 3 6 16 9 30 7 14 -3 23 -1 20 4 -10 17
-56 11 -55 -7z"/>
<path d="M216 2331 c-4 -5 3 -7 14 -4 11 3 20 0 20 -6 0 -6 -7 -11 -15 -11 -8
0 -15 -4 -15 -10 0 -6 10 -5 25 2 19 9 22 14 14 25 -13 15 -35 17 -43 4z"/>
<path d="M6741 2320 c0 -8 6 -23 13 -33 12 -16 14 -16 20 -2 3 9 2 13 -4 10
-6 -4 -14 4 -19 17 -6 13 -10 16 -10 8z"/>
<path d="M6716 2295 c-3 -9 -2 -13 4 -10 17 10 11 -5 -10 -27 l-20 -22 22 -13
c27 -15 41 -16 33 -4 -3 5 3 17 12 27 17 17 17 18 0 11 -10 -4 -21 -7 -23 -7
-3 0 -2 -4 1 -10 3 -5 -1 -10 -9 -10 -22 0 -20 16 3 32 16 11 17 16 6 31 -11
16 -13 16 -19 2z"/>
<path d="M325 2119 c3 -4 -2 -9 -10 -13 -8 -3 -15 -11 -15 -18 0 -11 2 -11 8
0 7 9 13 7 28 -9 19 -22 19 -22 -6 -15 -17 5 -21 4 -11 -2 7 -5 11 -14 8 -20
-4 -5 4 -9 16 -8 16 1 22 8 23 26 1 14 -2 32 -8 40 -6 11 -7 8 -2 -10 6 -24 5
-24 -12 -8 -13 13 -15 20 -6 31 9 11 8 14 -3 14 -8 0 -12 -4 -10 -8z m35 -69
c0 -5 -5 -10 -11 -10 -5 0 -7 5 -4 10 3 6 8 10 11 10 2 0 4 -4 4 -10z"/>
<path d="M6687 2109 c7 -7 15 -10 18 -7 3 3 -2 9 -12 12 -14 6 -15 5 -6 -5z"/>
<path d="M6630 2081 c0 -3 5 -13 10 -21 7 -11 10 -11 10 -2 0 7 10 17 23 21
19 8 18 9 -10 9 -18 -1 -33 -4 -33 -7z"/>
<path d="M6658 2049 c-11 -11 -13 -19 -6 -19 6 0 8 -3 4 -7 -4 -5 -20 -8 -34
-8 -15 -1 -25 -3 -22 -7 3 -3 -3 -15 -13 -26 -18 -20 -9 -40 12 -27 5 3 12 1
16 -5 3 -5 1 -10 -6 -10 -7 0 -10 -3 -6 -6 3 -3 11 -3 17 1 8 5 7 11 -2 23
-11 14 -10 15 6 8 19 -7 19 -6 1 14 -18 20 -9 28 13 10 6 -6 10 -7 7 -3 -3 3
2 15 12 25 9 10 12 18 8 18 -4 0 0 9 10 20 10 11 14 20 9 19 -5 0 -17 -9 -26
-20z m-53 -78 c-3 -6 -11 -11 -17 -11 -6 0 -6 6 2 15 14 17 26 13 15 -4z"/>
<path d="M6613 2045 c0 -8 4 -15 9 -15 4 0 8 7 8 15 0 8 -4 15 -8 15 -5 0 -9
-7 -9 -15z"/>
<path d="M357 1993 c-4 -3 2 -20 13 -38 11 -18 18 -34 15 -36 -2 -3 5 -5 15
-6 11 -1 23 3 26 9 5 7 2 9 -9 5 -16 -6 -50 35 -50 60 0 15 -1 15 -10 6z"/>
<path d="M6561 1926 c-15 -18 14 -30 37 -16 14 9 13 10 -5 5 -24 -7 -33 9 -10
18 7 4 8 6 1 6 -6 1 -17 -5 -23 -13z"/>
<path d="M6540 1891 c13 -9 13 -11 0 -11 -13 -1 -13 -2 0 -10 24 -13 38 -16
38 -6 0 5 6 12 14 17 9 6 7 8 -7 7 -11 0 -29 3 -40 7 -16 5 -17 5 -5 -4z m35
-21 c3 -6 -1 -7 -9 -4 -18 7 -21 14 -7 14 6 0 13 -4 16 -10z"/>
<path d="M456 1881 c-3 -5 1 -11 9 -14 9 -4 12 -1 8 9 -6 16 -10 17 -17 5z"/>
<path d="M6541 1811 c-8 -5 -9 -11 -3 -15 5 -3 12 1 16 9 6 17 6 18 -13 6z"/>
<path d="M6509 1783 c-6 -36 -5 -52 2 -47 4 2 6 11 2 20 -3 8 -2 14 3 12 5 -2
10 1 12 7 2 5 -1 11 -7 13 -6 2 -12 0 -12 -5z"/>
<path d="M6456 1762 c-4 -7 -5 -12 -2 -12 2 0 11 -3 20 -6 9 -3 16 -1 16 6 0
6 -4 9 -9 6 -5 -4 -11 -1 -13 6 -3 9 -6 9 -12 0z"/>
<path d="M546 1695 c-16 -24 -11 -31 18 -26 5 1 6 -5 3 -13 -4 -10 -1 -13 9
-9 8 3 14 -1 14 -11 0 -9 5 -16 10 -16 14 0 13 2 -14 39 -14 18 -22 39 -19 47
8 22 -3 16 -21 -11z"/>
<path d="M6415 1670 c-3 -5 -1 -10 4 -10 6 0 11 5 11 10 0 6 -2 10 -4 10 -3 0
-8 -4 -11 -10z"/>
<path d="M6409 1641 c13 -12 28 -21 35 -20 6 0 5 3 -3 6 -11 5 -11 7 0 15 11
8 11 9 -1 5 -8 -2 -24 0 -35 5 -16 7 -16 5 4 -11z"/>
<path d="M556 1618 c3 -4 9 -8 15 -8 5 0 9 4 9 8 0 5 -7 9 -15 9 -8 0 -12 -4
-9 -9z"/>
<path d="M608 1600 c27 -11 27 -17 5 -44 -18 -21 -18 -21 3 -3 25 21 34 22 34
1 0 -8 -4 -13 -9 -9 -5 3 -12 1 -16 -5 -7 -11 31 -70 45 -70 5 0 -2 12 -15 26
-27 29 -32 45 -13 42 6 -2 13 4 15 14 5 19 -34 58 -56 57 -10 0 -8 -4 7 -9z"/>
<path d="M580 1582 c0 -5 7 -9 15 -9 8 0 15 4 15 9 0 4 -7 8 -15 8 -8 0 -15
-4 -15 -8z"/>
<path d="M6385 1559 c-4 -6 -12 -8 -19 -6 -7 3 -13 -4 -13 -14 -2 -18 -9 -30
-45 -69 -14 -16 -15 -20 -2 -31 12 -10 13 -9 8 6 -6 14 -4 16 6 10 9 -5 11 -4
6 3 -4 7 4 22 16 35 13 13 22 29 20 35 -2 8 3 10 15 5 10 -3 15 -3 11 2 -4 4
-3 14 3 22 6 7 9 13 6 13 -3 0 -9 -5 -12 -11z"/>
<path d="M666 1534 c-8 -21 -9 -18 14 -44 11 -13 23 -20 26 -17 4 4 -4 16 -17
27 -19 15 -21 21 -10 29 8 5 9 11 3 15 -5 3 -13 -1 -16 -10z"/>
<path d="M715 1460 c-4 -6 -16 -8 -28 -5 -12 2 -16 2 -9 -1 6 -3 10 -10 7 -15
-4 -5 1 -6 10 -3 11 5 14 2 9 -12 -4 -14 -3 -15 3 -6 6 7 19 14 30 15 17 1 19
4 9 19 -12 20 -22 23 -31 8z m20 -10 c3 -5 -1 -10 -10 -10 -9 0 -13 5 -10 10
3 6 8 10 10 10 2 0 7 -4 10 -10z"/>
<path d="M6265 1452 c-5 -4 -17 -16 -25 -27 -14 -18 -13 -19 1 -8 8 7 25 11
38 8 12 -2 19 0 16 6 -4 5 -11 6 -17 3 -7 -5 -9 -1 -5 9 7 19 6 20 -8 9z"/>
<path d="M725 1410 c-7 -11 5 -40 17 -40 5 0 6 -5 2 -12 -4 -6 -3 -8 4 -4 5 3
13 0 15 -6 4 -10 6 -10 6 0 1 8 -9 22 -21 32 -13 10 -20 21 -16 25 4 4 19 -5
35 -19 15 -14 32 -26 37 -26 5 0 -2 9 -15 21 -13 12 -23 24 -22 28 2 10 -36
11 -42 1z"/>
<path d="M6158 1300 c20 -23 14 -35 -8 -15 -23 21 -27 14 -5 -9 17 -17 41 -12
49 10 3 9 1 12 -5 9 -5 -4 -18 -1 -27 6 -14 11 -15 11 -4 -1z"/>
<path d="M6127 1253 c5 -12 3 -14 -7 -8 -8 5 -11 4 -7 -2 4 -6 -2 -22 -13 -34
-11 -13 -19 -19 -20 -12 0 6 5 15 10 18 6 3 10 14 10 23 0 11 -5 7 -15 -11 -8
-15 -11 -35 -8 -44 4 -11 3 -14 -5 -9 -7 4 -23 -1 -36 -11 -21 -17 -22 -21
-10 -38 10 -14 14 -15 14 -4 0 12 2 12 11 -1 9 -12 10 -13 7 0 -5 18 22 51 35
43 6 -3 7 -1 3 6 -10 15 13 43 28 34 6 -3 8 -2 3 2 -4 5 0 18 8 31 12 19 12
23 0 28 -10 3 -12 0 -8 -11z m-72 -103 c-10 -11 -20 -18 -23 -15 -7 6 18 35
31 35 5 0 2 -9 -8 -20z"/>
<path d="M830 1251 c0 -6 4 -13 10 -16 6 -3 7 1 4 9 -7 18 -14 21 -14 7z"/>
<path d="M6149 1233 c-13 -16 -12 -17 4 -4 16 13 21 21 13 21 -2 0 -10 -8 -17
-17z"/>
<path d="M912 1223 c0 -10 -3 -27 -7 -38 -4 -12 -3 -15 2 -8 12 16 45 20 50 5
3 -7 -1 -10 -10 -7 -7 3 -19 0 -26 -8 -9 -11 -7 -17 6 -28 16 -12 17 -12 6 2
-7 9 -10 19 -6 22 9 9 23 9 22 0 -3 -20 2 -34 11 -28 6 3 10 2 10 -4 0 -5 -6
-11 -12 -14 -7 -3 -4 -5 7 -5 11 1 25 0 30 -2 21 -5 36 0 29 11 -5 8 -8 8 -14
0 -4 -8 -15 -4 -33 13 -27 25 -26 45 2 23 8 -6 5 2 -7 20 -14 20 -28 30 -37
26 -11 -3 -13 -1 -9 10 3 8 1 18 -5 21 -5 4 -9 -2 -9 -11z"/>
<path d="M883 1215 c-7 -8 -9 -16 -4 -19 5 -3 12 1 15 10 8 22 4 25 -11 9z"/>
<path d="M5980 1105 c-13 -14 -20 -28 -17 -32 4 -3 7 -1 7 5 0 7 5 12 11 12 5
0 8 -4 5 -9 -3 -5 1 -12 9 -15 13 -4 13 -2 5 14 -14 27 -12 34 5 20 10 -9 15
-9 15 -1 0 6 -5 11 -11 11 -5 0 -7 5 -4 10 11 18 -1 11 -25 -15z"/>
<path d="M970 1096 c0 -2 7 -9 15 -16 9 -7 15 -8 15 -2 0 5 -7 12 -15 16 -8 3
-15 4 -15 2z"/>
<path d="M5961 1051 c-7 -5 -9 -11 -5 -14 5 -3 15 1 22 9 14 16 5 18 -17 5z"/>
<path d="M5900 1037 c0 -5 6 -7 13 -4 6 2 21 -3 31 -12 18 -15 18 -15 5 6 -12
21 -49 28 -49 10z"/>
<path d="M1095 981 c-2 -5 7 -8 20 -8 14 0 25 2 25 6 0 10 -39 11 -45 2z"/>
<path d="M1160 970 c-9 -6 -10 -10 -3 -10 6 0 15 5 18 10 8 12 4 12 -15 0z"/>
<path d="M1134 945 c1 -8 6 -18 11 -22 4 -4 5 -3 2 4 -4 6 -2 13 5 15 8 3 6 6
-4 10 -10 4 -15 2 -14 -7z"/>
<path d="M1207 934 c5 -13 3 -15 -7 -9 -9 5 -11 4 -6 -3 4 -7 11 -12 17 -12
12 0 12 27 -1 35 -6 4 -7 -1 -3 -11z"/>
<path d="M5846 924 c-5 -14 -4 -15 9 -4 17 14 19 20 6 20 -5 0 -12 -7 -15 -16z"/>
<path d="M1160 921 c0 -17 41 -40 59 -33 14 5 14 3 3 -10 -12 -14 -10 -16 15
-12 15 3 33 5 40 6 18 2 5 17 -15 17 -47 1 -94 19 -86 32 3 5 0 9 -5 9 -6 0
-11 -4 -11 -9z"/>
<path d="M1262 851 c-11 -7 -11 -9 1 -14 16 -6 27 0 27 15 0 10 -11 10 -28 -1z"/>
<path d="M1327 829 c7 -7 15 -10 18 -7 3 3 -2 9 -12 12 -14 6 -15 5 -6 -5z"/>
<path d="M1370 800 c0 -5 5 -10 11 -10 5 0 7 5 4 10 -3 6 -8 10 -11 10 -2 0
-4 -4 -4 -10z"/>
<path d="M5660 770 c-8 -5 -12 -12 -9 -15 4 -3 12 1 19 10 14 17 11 19 -10 5z"/>
<path d="M5524 727 c-8 -9 -5 -17 12 -30 16 -12 25 -14 30 -5 4 7 3 8 -4 4 -7
-4 -12 -3 -12 2 0 6 7 13 16 16 22 9 26 8 18 -6 -4 -7 -3 -8 4 -4 16 10 15 14
-9 27 -12 6 -19 7 -15 1 3 -5 -1 -13 -10 -16 -24 -9 -28 -7 -14 9 15 18 0 20
-16 2z"/>
<path d="M5485 690 c-4 -6 1 -7 11 -3 10 4 15 2 11 -3 -3 -6 -1 -16 4 -24 8
-13 10 -13 19 0 7 11 5 19 -7 28 -20 15 -30 15 -38 2z"/>
<path d="M1509 683 c-5 -29 -5 -53 -1 -48 3 2 11 0 19 -6 18 -16 16 -4 -3 16
-9 9 -13 19 -9 23 11 11 45 -37 39 -56 -5 -13 -4 -14 4 -3 11 15 27 -2 17 -19
-3 -5 -1 -10 4 -10 6 0 11 8 11 18 0 10 5 23 10 30 7 9 7 9 -2 2 -20 -17 -31
-11 -17 8 13 16 13 16 -5 2 -18 -14 -18 -13 -12 10 6 19 5 21 -3 10 -6 -8 -11
-10 -11 -5 0 12 -39 38 -41 28z"/>
<path d="M5446 671 c-3 -5 1 -14 9 -21 7 -6 13 -17 11 -23 -1 -7 -1 -9 1 -4 3
4 10 4 16 1 8 -5 8 -2 0 7 -18 19 -16 34 2 19 13 -11 14 -10 9 4 -4 11 -13 15
-26 10 -14 -4 -18 -2 -14 5 4 6 5 11 2 11 -3 0 -7 -4 -10 -9z"/>
<path d="M1714 552 c2 -13 -2 -26 -12 -32 -15 -8 -11 -11 13 -10 3 1 13 -6 21
-15 9 -8 19 -13 24 -10 5 3 10 2 13 -2 2 -5 2 -2 1 5 -5 18 10 15 36 -8 26
-22 40 -26 40 -9 0 5 -4 8 -9 4 -5 -3 -16 4 -24 15 -7 11 -17 17 -20 13 -4 -3
-7 0 -7 7 0 10 -5 9 -19 -4 -17 -15 -19 -15 -32 0 -11 14 -10 15 6 12 10 -1
19 3 21 10 1 7 0 8 -2 3 -8 -15 -34 -1 -45 23 -9 20 -9 20 -5 -2z"/>
<path d="M5215 487 c-16 -18 -34 -39 -38 -47 -5 -8 -1 -6 7 4 9 11 16 16 16
10 0 -5 5 -2 10 6 5 8 15 15 21 15 7 0 14 10 15 23 5 28 5 28 -31 -11z"/>
<path d="M1786 464 c-3 -8 -2 -13 3 -9 5 3 17 -2 25 -11 9 -8 16 -12 16 -7 0
5 -9 16 -19 25 -17 14 -20 14 -25 2z"/>
<path d="M1866 453 c2 -7 -5 -17 -14 -22 -9 -6 -12 -11 -5 -11 6 0 15 5 18 10
4 6 11 7 17 4 7 -4 8 -2 4 4 -8 13 6 17 17 5 10 -9 -14 -34 -26 -26 -6 3 -7 1
-3 -5 4 -6 14 -8 23 -5 12 5 14 3 8 -8 -7 -11 -5 -11 10 1 17 14 18 13 12 -2
-4 -13 -2 -15 10 -11 10 4 14 2 10 -4 -3 -5 0 -10 8 -10 17 0 27 21 19 42 -5
12 -32 27 -54 30 -3 0 -11 4 -17 8 -7 5 -17 6 -22 3 -5 -4 -11 -3 -14 1 -2 5
-2 2 -1 -4z m99 -44 c12 -18 -3 -22 -20 -5 -9 9 -21 14 -26 11 -10 -7 -12 8
-3 18 8 7 40 -8 49 -24z"/>
<path d="M5150 445 c0 -8 -3 -15 -7 -15 -5 0 -19 -10 -33 -21 l-25 -21 33 19
c35 18 62 53 42 53 -5 0 -10 -7 -10 -15z"/>
<path d="M5040 420 c0 -5 0 -13 1 -16 0 -4 -5 -10 -13 -15 -11 -7 -10 -10 1
-21 11 -11 13 -11 6 1 -6 11 -4 13 9 8 13 -5 15 -3 8 11 -5 9 -7 23 -5 30 3 6
2 12 -1 12 -3 0 -6 -4 -6 -10z"/>
<path d="M5004 405 c-4 -8 -11 -12 -16 -9 -6 4 -5 -3 1 -15 7 -12 9 -27 5 -33
-5 -7 -3 -8 5 -3 7 4 11 15 8 25 -2 9 0 25 5 34 5 9 6 16 3 16 -3 0 -8 -7 -11
-15z"/>
<path d="M4885 329 c-6 -17 -9 -19 -17 -8 -8 11 -9 10 -5 -3 4 -12 0 -16 -14
-15 -10 1 -19 8 -19 17 -1 12 -3 12 -11 -3 -6 -9 -14 -15 -20 -12 -5 4 -9 1
-9 -4 0 -6 4 -11 9 -11 5 0 11 -6 14 -12 2 -7 3 -5 2 4 -2 11 4 16 16 15 11
-1 19 -5 19 -11 0 -5 9 -1 19 8 15 13 20 14 23 4 3 -7 5 2 5 20 0 37 -3 40
-12 11z"/>
<path d="M2091 307 c2 -1 13 -9 24 -17 19 -14 19 -14 6 3 -7 9 -18 17 -24 17
-6 0 -8 -1 -6 -3z"/>
<path d="M2277 283 c-9 -14 -2 -53 8 -51 6 2 9 10 7 18 -2 8 -4 21 -4 28 -1
14 -5 15 -11 5z"/>
<path d="M2246 255 c-9 -26 -7 -32 5 -12 6 10 9 21 6 23 -2 3 -7 -2 -11 -11z"/>
<path d="M4664 248 c8 -5 19 -16 24 -24 8 -14 10 -14 22 1 11 13 10 15 -4 9
-9 -3 -16 -2 -16 4 0 6 6 12 13 15 6 2 -3 4 -21 4 -24 0 -29 -3 -18 -9z"/>
<path d="M4727 245 c3 -8 9 -12 14 -9 12 7 11 11 -5 17 -10 4 -13 1 -9 -8z"/>
<path d="M4647 224 c4 -11 2 -15 -4 -11 -6 4 -14 0 -17 -8 -5 -13 -2 -14 17
-3 12 7 25 11 30 10 15 -4 6 8 -13 18 -16 9 -19 8 -13 -6z"/>
<path d="M4527 213 c-13 -15 -13 -21 -2 -36 7 -10 16 -14 19 -9 3 6 -1 13 -10
16 -15 6 -15 8 1 26 10 11 16 20 13 20 -3 0 -12 -8 -21 -17z"/>
<path d="M4546 202 c-2 -4 5 -14 17 -22 19 -12 21 -11 10 2 -7 8 -10 18 -6 21
3 4 1 7 -5 7 -6 0 -13 -4 -16 -8z"/>
<path d="M4440 188 c13 -15 13 -38 0 -38 -5 0 -9 6 -7 13 1 7 -6 11 -18 9 -11
-1 -35 -3 -52 -4 -18 -1 -33 -5 -33 -9 0 -10 30 -20 41 -13 13 8 11 -10 -3
-26 -11 -12 -10 -12 4 -1 9 7 22 10 28 6 5 -3 13 0 16 9 3 8 12 12 20 9 21 -8
29 26 10 43 -9 8 -11 9 -6 2z m-22 -37 c-10 -16 -15 -17 -26 -8 -12 9 -11 12
5 18 30 12 34 10 21 -10z"/>
<path d="M2661 160 c0 -8 14 -27 32 -41 l33 -27 1 34 c0 19 -4 31 -9 28 -5 -3
-6 -15 -2 -27 6 -20 5 -20 -10 -8 -9 8 -14 21 -11 29 4 12 3 12 -9 3 -11 -10
-15 -8 -19 6 -3 12 -5 13 -6 3z"/>
<path d="M4284 152 c-10 -6 -34 -45 -34 -54 0 -2 11 -4 24 -4 14 0 22 4 20 8
-3 5 -10 6 -15 3 -5 -4 -9 1 -9 9 0 21 9 20 34 -1 21 -18 21 -18 3 4 -11 12
-16 27 -12 32 7 13 4 14 -11 3z"/>
<path d="M2627 135 c-16 -11 -16 -13 -2 -19 9 -3 13 -2 10 4 -3 6 -1 10 4 10
6 0 11 -5 11 -12 0 -6 3 -9 6 -5 3 3 2 12 -3 20 -7 13 -11 13 -26 2z"/>
<path d="M4233 132 c-5 -22 -25 -32 -20 -11 1 6 -5 14 -13 16 -9 3 -11 1 -5
-4 17 -14 17 -43 0 -43 -8 0 -15 -5 -15 -10 0 -17 38 7 56 36 9 13 14 28 10
31 -4 4 -9 -3 -13 -15z"/>
<path d="M4310 144 c0 -7 27 -34 34 -34 13 0 5 16 -14 28 -11 7 -20 10 -20 6z"/>
<path d="M2577 129 c7 -7 15 -10 18 -7 3 3 -2 9 -12 12 -14 6 -15 5 -6 -5z"/>
<path d="M4130 120 c-12 -7 -10 -9 7 -7 12 0 19 5 17 9 -6 10 -6 10 -24 -2z"/>
<path d="M4170 115 c0 -8 4 -15 10 -15 5 0 7 7 4 15 -4 8 -8 15 -10 15 -2 0
-4 -7 -4 -15z"/>
<path d="M2670 106 c0 -2 7 -7 16 -10 8 -3 12 -2 9 4 -6 10 -25 14 -25 6z"/>
<path d="M4026 94 c-6 -15 -4 -15 11 -3 15 12 16 12 10 -3 -3 -10 -2 -20 4
-23 5 -4 6 -12 2 -18 -3 -7 3 -3 15 7 12 11 22 14 22 8 0 -7 5 -12 11 -12 8 0
8 5 -1 15 -15 18 -7 19 23 4 20 -9 20 -9 5 4 -10 8 -14 17 -10 21 4 4 -5 2
-20 -5 -16 -7 -28 -17 -28 -22 0 -6 -3 -7 -7 -3 -4 4 -8 15 -8 23 0 23 -21 27
-29 7z"/>
<path d="M3960 85 c-1 -11 -4 -15 -7 -7 -2 6 -9 12 -15 12 -6 0 -6 -6 2 -15
10 -12 10 -18 1 -29 -10 -12 -9 -14 6 -12 10 2 17 10 15 18 -1 11 5 14 23 13
14 -2 25 1 25 7 0 5 -9 7 -19 3 -14 -4 -21 0 -24 12 -4 16 -5 16 -7 -2z"/>
<path d="M4140 85 c14 -17 30 -20 30 -4 0 5 -4 7 -10 4 -5 -3 -10 -1 -10 4 0
6 -5 11 -11 11 -8 0 -8 -5 1 -15z"/>
<path d="M3110 79 c0 -7 3 -9 6 -6 4 3 15 2 25 -4 12 -6 25 -6 36 0 14 8 13 9
-7 8 -14 0 -33 3 -42 7 -12 6 -18 4 -18 -5z"/>
<path d="M3885 79 c4 -10 -2 -15 -15 -16 -11 -1 -19 1 -16 5 2 4 -6 7 -19 7
-14 0 -21 -5 -18 -12 3 -7 9 -10 14 -7 6 3 16 0 24 -6 11 -10 15 -10 15 -1 0
7 4 10 8 7 4 -2 14 -1 20 3 10 6 9 11 -3 21 -13 11 -15 10 -10 -1z"/>
<path d="M3296 61 c-4 -7 -17 -9 -29 -6 -19 5 -20 4 -5 -5 11 -6 15 -17 11
-27 -6 -15 -5 -16 9 -3 9 8 14 18 11 23 -2 4 0 7 5 7 5 0 13 -10 19 -22 9 -21
10 -21 17 -3 4 11 4 16 0 12 -5 -4 -13 2 -20 14 -7 15 -13 18 -18 10z"/>
<path d="M3325 60 c3 -5 8 -10 11 -10 2 0 4 5 4 10 0 6 -5 10 -11 10 -5 0 -7
-4 -4 -10z"/>
<path d="M3384 46 c6 -34 12 -41 19 -24 2 8 -2 23 -10 33 -13 19 -14 18 -9 -9z"/>
<path d="M3411 53 c8 -10 22 -27 33 -38 18 -20 18 -20 8 1 -6 12 -8 25 -4 29
4 5 1 5 -5 1 -7 -4 -13 -3 -13 2 0 6 -7 13 -16 16 -15 6 -15 4 -3 -11z"/>
<path d="M3669 57 c-13 -10 -14 -16 -5 -29 10 -13 13 -13 24 -1 7 7 18 10 24
7 7 -4 8 -2 4 4 -4 7 -2 12 5 12 6 0 9 -8 7 -18 -4 -16 0 -18 26 -15 17 2 46
4 64 5 17 1 32 6 32 10 0 5 -9 6 -20 3 -14 -4 -20 -2 -20 9 0 8 -5 18 -11 21
-6 4 -9 0 -7 -10 2 -10 -3 -20 -11 -23 -8 -2 -11 0 -8 5 8 12 -10 39 -20 30
-4 -5 -3 -11 2 -15 14 -10 17 -32 5 -32 -6 0 -15 11 -22 25 l-11 24 -28 -20
c-16 -11 -29 -16 -29 -10 0 5 8 15 18 20 9 6 13 10 7 10 -5 0 -17 -5 -26 -12z"/>
<path d="M3920 63 c0 -5 -10 -15 -22 -21 l-23 -10 22 1 c21 1 39 24 28 35 -3
3 -5 1 -5 -5z"/>
<path d="M4017 56 c-4 -10 -1 -13 8 -9 8 3 12 9 9 14 -7 12 -11 11 -17 -5z"/>
<path d="M3101 38 l-14 -23 22 20 c22 19 23 19 37 0 8 -10 14 -14 14 -9 0 13
-21 34 -35 34 -5 0 -16 -10 -24 -22z"/>
<path d="M3181 51 c-15 -10 -7 -31 12 -31 7 0 6 4 -3 10 -13 9 -7 14 13 11 4
0 7 4 7 9 0 12 -10 13 -29 1z"/>
<path d="M3350 50 c0 -5 5 -10 10 -10 6 0 10 5 10 10 0 6 -4 10 -10 10 -5 0
-10 -4 -10 -10z"/>
<path d="M3460 36 c0 -21 21 -31 31 -15 15 24 10 34 -7 13 -13 -16 -15 -16
-10 -1 3 9 1 17 -4 17 -6 0 -10 -6 -10 -14z"/>
<path d="M3625 40 c3 -5 1 -10 -4 -10 -6 0 -11 -5 -11 -11 0 -8 6 -7 17 2 14
12 16 12 11 -2 -4 -9 -1 -16 7 -16 10 0 11 6 2 24 -5 13 -14 23 -19 23 -5 0
-6 -4 -3 -10z"/>
<path d="M3345 20 c-7 -11 22 -26 32 -16 4 3 -2 6 -13 6 -16 0 -17 2 -4 10 9
6 10 10 3 10 -6 0 -15 -5 -18 -10z"/>
<path d="M3410 9 c0 -5 5 -7 10 -4 6 3 10 8 10 11 0 2 -4 4 -10 4 -5 0 -10 -5
-10 -11z"/>
<path d="M3535 10 c3 -5 8 -10 11 -10 2 0 4 5 4 10 0 6 -5 10 -11 10 -5 0 -7
-4 -4 -10z"/>
</g>
</svg>
